<?xml version="1.0" encoding="UTF-8" standalone="no"?>
<!-- Created with Inkscape (http://www.inkscape.org/) -->
<svg
   xmlns:dc="http://purl.org/dc/elements/1.1/"
   xmlns:cc="http://creativecommons.org/ns#"
   xmlns:rdf="http://www.w3.org/1999/02/22-rdf-syntax-ns#"
   xmlns:svg="http://www.w3.org/2000/svg"
   xmlns="http://www.w3.org/2000/svg"
   xmlns:xlink="http://www.w3.org/1999/xlink"
   xmlns:sodipodi="http://sodipodi.sourceforge.net/DTD/sodipodi-0.dtd"
   xmlns:inkscape="http://www.inkscape.org/namespaces/inkscape"
   width="260"
   height="255"
   id="svg2"
   sodipodi:version="0.32"
   inkscape:version="0.46"
   sodipodi:docname="icon.svg"
   inkscape:output_extension="org.inkscape.output.svg.inkscape"
   version="1.0">
  <defs
     id="defs4">
    <linearGradient
       id="linearGradient3228">
      <stop
         style="stop-color:#eb6f24;stop-opacity:1;"
         offset="0"
         id="stop3230" />
      <stop
         style="stop-color:#eb6f24;stop-opacity:0;"
         offset="1"
         id="stop3232" />
    </linearGradient>
    <inkscape:perspective
       sodipodi:type="inkscape:persp3d"
       inkscape:vp_x="0 : 526.18109 : 1"
       inkscape:vp_y="0 : 1000 : 0"
       inkscape:vp_z="744.09448 : 526.18109 : 1"
       inkscape:persp3d-origin="372.04724 : 350.78739 : 1"
       id="perspective10" />
    <linearGradient
       inkscape:collect="always"
       xlink:href="#linearGradient3228"
       id="linearGradient3234"
       x1="386.55273"
       y1="398.64389"
       x2="417.31387"
       y2="292.03842"
       gradientUnits="userSpaceOnUse"
       gradientTransform="matrix(0.9969357,-7.8225894e-2,7.8225894e-2,0.9969357,-30.571722,30.749093)" />
  </defs>
  <sodipodi:namedview
     id="base"
     pagecolor="#ffffff"
     bordercolor="#666666"
     borderopacity="1.0"
     gridtolerance="10000"
     guidetolerance="10"
     objecttolerance="10"
     inkscape:pageopacity="0.0"
     inkscape:pageshadow="2"
     inkscape:zoom="4.0898468"
     inkscape:cx="164.45212"
     inkscape:cy="162.73035"
     inkscape:document-units="px"
     inkscape:current-layer="layer1"
     showgrid="false"
     inkscape:window-width="1100"
     inkscape:window-height="896"
     inkscape:window-x="172"
     inkscape:window-y="63" />
  <metadata
     id="metadata7">
    <rdf:RDF>
      <cc:Work
         rdf:about="">
        <dc:format>image/svg+xml</dc:format>
        <dc:type
           rdf:resource="http://purl.org/dc/dcmitype/StillImage" />
      </cc:Work>
    </rdf:RDF>
  </metadata>
  <g
     inkscape:label="Layer 1"
     inkscape:groupmode="layer"
     id="layer1"
     transform="translate(-244.7004,-248.62015)">
    <path
       style="fill:#fff6eb;fill-opacity:1;stroke:#aaa59c;stroke-width:3.5;stroke-miterlimit:4;stroke-opacity:1"
       d="M 399.22971,446.10052 C 399.22971,453.41669 394.17344,459.01674 387.96387,459.35445 C 385.21256,459.50408 379.4104,458.05897 377.45337,456.21536 C 374.98696,453.8919 376.69803,450.65983 376.69803,446.10052 C 376.69803,441.49213 375.78374,436.7191 378.68511,434.78018 C 380.66003,433.46038 387.43236,434.48668 389.83826,434.48668 C 396.05701,434.48668 399.22971,438.78435 399.22971,446.10052 z"
       id="path3247"
       sodipodi:nodetypes="csssssc" />
    <path
       style="fill:#fff6eb;fill-opacity:1;stroke:#aaa59c;stroke-width:3.5;stroke-miterlimit:4;stroke-opacity:1"
       d="M 472.02348,397.79449 C 472.02348,405.11066 466.97639,411.04842 460.75764,411.04842 C 457.09112,411.04842 450.786,410.85873 448.72834,407.66503 C 447.29602,405.44193 448.37572,398.14917 449.0232,395.21721 C 450.00186,390.78561 449.58781,383.38514 451.6452,381.80277 C 453.52825,380.35448 457.78584,384.54056 460.75764,384.54056 C 466.97639,384.54056 472.02348,390.47832 472.02348,397.79449 z"
       id="path3251"
       sodipodi:nodetypes="csssssc" />
    <path
       style="fill:#fff6eb;fill-opacity:1;stroke:#aaa59c;stroke-width:3.5;stroke-miterlimit:4;stroke-opacity:1"
       d="M 454.62425,318.55349 C 454.62425,322.65143 450.28586,328.45413 446.69595,330.12692 C 443.87668,331.44061 442.09391,329.05742 439.35841,329.05742 C 433.13967,329.05742 432.09257,325.86966 432.09257,318.55349 C 432.09257,311.23732 437.13967,305.29956 443.35841,305.29956 C 449.57716,305.29956 454.62425,311.23732 454.62425,318.55349 z"
       id="path3255"
       sodipodi:nodetypes="cssssc" />
    <path
       style="fill:#fff6eb;fill-opacity:1;stroke:#aaa59c;stroke-width:3.5;stroke-miterlimit:4;stroke-opacity:1"
       d="M 473.45173,369.22771 C 473.45173,376.54388 468.40464,382.48164 462.18589,382.48164 C 459.40177,382.48164 455.24189,381.67069 452.54401,379.85642 C 452.03771,379.51594 451.5829,379.14013 451.19834,378.72771 C 449.05492,376.42905 449.51426,372.88806 449.51426,369.46201 C 449.51426,366.07754 449.48939,357.78334 451.58923,355.38629 C 454.02859,352.60168 458.84395,355.97378 462.18589,355.97378 C 468.40464,355.97378 473.45173,361.91154 473.45173,369.22771 z"
       id="path3257"
       sodipodi:nodetypes="cssssssc" />
    <path
       style="fill:#fff6eb;fill-opacity:1;stroke:#aaa59c;stroke-width:3.5;stroke-miterlimit:4;stroke-opacity:1"
       d="M 470.90379,341.14995 C 470.90379,348.46612 465.8567,354.40388 459.63795,354.40388 C 456.70721,354.40388 452.16231,354.49089 450.15766,352.33056 C 447.90864,349.90689 448.13781,343.3781 447.43492,339.97846 C 445.95359,332.81382 453.41921,327.89602 459.63795,327.89602 C 465.8567,327.89602 470.90379,333.83378 470.90379,341.14995 z"
       id="path3259"
       sodipodi:nodetypes="cssssc" />
    <path
       style="fill:#fff6eb;fill-opacity:1;stroke:#aaa59c;stroke-width:3.5;stroke-miterlimit:4;stroke-opacity:1"
       d="M 431.50774,311.32513 C 431.50774,314.93258 431.73366,325.47904 429.79865,327.54351 C 427.80931,329.66593 423.14745,327.46771 420.02331,327.04644 C 416.82569,326.61526 412.70235,327.74723 410.90634,326.40346 C 408.35634,324.49556 408.50747,319.60404 408.50747,315.54251 C 408.50747,308.22634 413.55457,302.28858 419.7733,302.28858 C 425.99205,302.28858 431.50774,304.00896 431.50774,311.32513 z"
       id="path3263"
       sodipodi:nodetypes="csssssc" />
    <path
       style="fill:#fff6eb;fill-opacity:1;stroke:#aaa59c;stroke-width:3.5;stroke-miterlimit:4;stroke-opacity:1"
       d="M 406.92109,316.10328 C 406.92109,323.41945 407.624,328.35721 401.40525,328.35721 C 398.88648,328.35721 388.80992,329.38313 386.93307,327.73792 C 384.17604,325.32116 384.38941,320.45619 384.38941,316.10328 C 384.38941,308.78711 389.43651,302.84935 395.65525,302.84935 C 401.874,302.84935 406.92109,308.78711 406.92109,316.10328 z"
       id="path3267"
       sodipodi:nodetypes="cssssc" />
    <path
       style="fill:#fff6eb;fill-opacity:1;stroke:#aaa59c;stroke-width:3.5;stroke-miterlimit:4;stroke-opacity:1"
       d="M 383.82499,317.64757 C 383.82499,321.68377 383.53889,326.80045 381.1174,329.23206 C 379.14961,331.20808 372.33744,329.63369 369.55915,329.4015 C 357.71724,328.41182 361.29331,324.83379 361.29331,317.64757 C 361.29331,310.3314 366.34041,304.39364 372.55915,304.39364 C 378.7779,304.39364 383.82499,310.3314 383.82499,317.64757 z"
       id="path3271"
       sodipodi:nodetypes="cssssc" />
    <path
       style="fill:#fff6eb;fill-opacity:1;stroke:#aaa59c;stroke-width:3.5;stroke-miterlimit:4;stroke-opacity:1"
       d="M 359.78233,317.13295 C 359.78233,320.61713 360.87546,326.2156 359.12351,328.04755 C 357.19667,330.06239 352.27368,328.13688 349.01649,328.13688 C 342.79775,328.13688 338.75065,324.19912 338.75065,316.88295 C 338.75065,309.56678 343.79775,303.62902 350.01649,303.62902 C 356.23524,303.62902 359.78233,309.81678 359.78233,317.13295 z"
       id="path3277"
       sodipodi:nodetypes="cssssc" />
    <path
       style="fill:#fff6eb;fill-opacity:1;stroke:#aaa59c;stroke-width:3.5;stroke-miterlimit:4;stroke-opacity:1"
       d="M 336.93623,316.91991 C 336.55372,320.40365 339.66071,325.86525 338.13061,327.81596 C 336.32344,330.11989 328.6802,326.81747 325.45179,327.25235 C 315.01567,328.65814 314.40455,324.23608 314.40455,316.91991 C 314.40455,309.60374 319.45165,303.66598 325.67039,303.66598 C 331.88914,303.66598 336.93623,309.60374 336.93623,316.91991 z"
       id="path3279"
       sodipodi:nodetypes="cssssc" />
    <path
       style="fill:#fff6eb;fill-opacity:1;stroke:#aaa59c;stroke-width:3.5;stroke-miterlimit:4;stroke-opacity:1"
       d="M 305.12552,337.8856 C 304.28718,340.73764 303.61246,344.52292 301.65501,346.01091 C 298.79494,348.18503 294.27145,347.39075 290.5795,347.39075 C 284.36076,347.39075 282.12524,343.32738 282.12524,336.01121 C 282.12524,332.29328 284.1825,326.39922 287.08714,326.84421 C 290.80379,327.4136 291.87826,330.09378 298.31135,331.19203 C 303.76545,332.12314 308.17141,327.52354 305.12552,337.8856 z"
       id="path3281"
       sodipodi:nodetypes="cssssss" />
    <path
       style="fill:#fff6eb;fill-opacity:1;stroke:#aaa59c;stroke-width:3.5;stroke-miterlimit:4;stroke-opacity:1"
       d="M 315.2083,319.37579 C 315.2083,322.25944 314.42423,323.99175 313.09338,326.16794 C 311.04769,329.51302 307.47581,331.45823 303.70816,331.45823 C 297.48942,331.45823 292.44232,325.52047 292.44232,318.2043 C 292.44232,310.88813 297.48942,304.95037 303.70816,304.95037 C 309.92691,304.95037 315.2083,312.05962 315.2083,319.37579 z"
       id="path3245"
       sodipodi:nodetypes="cssssc" />
    <path
       style="fill:#fff6eb;fill-opacity:1;stroke:#aaa59c;stroke-width:3.5;stroke-miterlimit:4;stroke-opacity:1"
       d="M 374.53626,446.83404 C 374.53626,454.15021 369.48917,460.08797 363.27042,460.08797 C 357.05168,460.08797 352.00458,454.15021 352.00458,446.83404 C 352.00458,442.218 352.60794,436.51059 355.65287,434.13714 C 357.43399,432.74879 360.97531,433.58011 363.27042,433.58011 C 366.15393,433.58011 370.89423,433.45093 372.88758,435.54964 C 375.19321,437.97712 374.53626,442.91023 374.53626,446.83404 z"
       id="path3284"
       sodipodi:nodetypes="csssssc" />
    <path
       style="fill:#fff6eb;fill-opacity:1;stroke:#aaa59c;stroke-width:3.5;stroke-miterlimit:4;stroke-opacity:1"
       d="M 350.19016,444.46656 C 350.19016,451.78273 345.14307,457.72049 338.92432,457.72049 C 332.70558,457.72049 327.65848,451.78273 327.65848,444.46656 C 327.65848,437.15039 329.02455,431.68683 337.04993,432.61842 C 341.52483,433.13787 348.17496,434.25871 350.78341,436.30112 C 353.06675,438.08898 350.19016,441.0516 350.19016,444.46656 z"
       id="path3286"
       sodipodi:nodetypes="cssssc" />
    <path
       style="fill:#fff6eb;fill-opacity:1;stroke:#aaa59c;stroke-width:3.5;stroke-miterlimit:4;stroke-opacity:1"
       d="M 325.2522,441.2239 C 325.2522,448.54007 320.20511,454.47783 313.98636,454.47783 C 307.76762,454.47783 302.83862,448.53912 302.72052,441.2239 C 302.64323,436.43629 302.98913,431.77035 306.71258,429.44091 C 308.49805,428.3239 309.61685,426.78542 311.64338,427.50137 C 315.62254,428.90716 324.23164,429.33566 326.89628,433.70237 C 330.55686,439.70122 325.2522,438.92375 325.2522,441.2239 z"
       id="path3288"
       sodipodi:nodetypes="csssssc" />
    <path
       style="fill:#fff6eb;fill-opacity:1;stroke:#aaa59c;stroke-width:3.5;stroke-miterlimit:4;stroke-opacity:1"
       d="M 303.98592,420.46988 C 312.42067,421.69429 300.81322,434.661 294.59447,434.661 C 288.37573,434.661 283.32863,428.72324 283.32863,421.40707 C 283.32863,414.0909 288.38504,408.49325 294.59447,408.15314 C 301.17358,407.79278 304.36319,406.21608 303.98592,420.46988 z"
       id="path3290"
       sodipodi:nodetypes="csssc" />
    <path
       style="fill:#fff6eb;fill-opacity:1;stroke:#aaa59c;stroke-width:3.5;stroke-miterlimit:4;stroke-opacity:1"
       d="M 302.9446,392.77009 C 302.9446,396.43718 303.43558,404.14962 301.73993,406.25638 C 300.0526,408.35279 295.24908,404.85253 292.14736,404.85253 C 285.92862,404.85253 280.88152,398.91477 280.88152,391.5986 C 280.88152,384.28243 285.92862,378.34467 292.14736,378.34467 C 295.79497,378.34467 299.97667,374.76434 302.03603,377.92995 C 303.48764,380.16133 302.9446,389.74522 302.9446,392.77009 z"
       id="path3292"
       sodipodi:nodetypes="csssssc" />
    <path
       style="fill:#fff6eb;fill-opacity:1;stroke:#aaa59c;stroke-width:3.5;stroke-miterlimit:4;stroke-opacity:1"
       d="M 421.51688,445.71435 C 421.51688,453.03052 416.46979,458.96828 410.25104,458.96828 C 404.0323,458.96828 399.12724,453.02914 398.9852,445.71435 C 398.89417,441.02629 395.5207,435.54681 399.25495,433.6185 C 401.13978,432.6452 408.41375,434.14814 410.71964,433.86621 C 427.46845,431.81845 421.51688,438.39818 421.51688,445.71435 z"
       id="path3294"
       sodipodi:nodetypes="cssssc" />
    <path
       style="fill:#fff6eb;fill-opacity:1;stroke:#aaa59c;stroke-width:3.5;stroke-miterlimit:4;stroke-opacity:1"
       d="M 303.4063,365.33193 C 303.4063,372.6481 301.4051,377.18007 295.18635,377.18007 C 288.96761,377.18007 283.92051,371.24231 283.92051,363.92614 C 283.92051,356.60997 288.96761,350.67221 295.18635,350.67221 C 298.36531,350.67221 302.78515,349.31101 304.05596,352.16434 C 305.27113,354.89277 303.4063,361.75571 303.4063,365.33193 z"
       id="path3296"
       sodipodi:nodetypes="cssssc" />
    <path
       style="fill:#fff6eb;fill-opacity:1;stroke:#aaa59c;stroke-width:3.5;stroke-miterlimit:4;stroke-opacity:1"
       d="M 445.0266,444.49181 C 445.0266,451.80798 439.97951,457.74574 433.76076,457.74574 C 427.54202,457.74574 422.49492,451.80798 422.49492,444.49181 C 422.49492,439.19471 422.3291,435.32309 426.14971,433.20163 C 427.60599,432.393 434.62184,431.70648 436.33804,431.70648 C 442.55679,431.70648 445.0266,437.17564 445.0266,444.49181 z"
       id="path3298"
       sodipodi:nodetypes="cssssc" />
    <path
       style="fill:#fff6eb;fill-opacity:1;stroke:#aaa59c;stroke-width:3.5;stroke-miterlimit:4;stroke-opacity:1"
       d="M 471.32875,424.05785 C 471.32875,431.37402 466.28166,437.31178 460.06291,437.31178 C 456.22565,437.31178 449.32,438.79976 447.28544,435.34935 C 446.02276,433.20796 447.56262,425.40291 448.09417,422.65206 C 449.73426,414.1644 447.9867,410.80392 454.20544,410.80392 C 460.42419,410.80392 471.32875,416.74168 471.32875,424.05785 z"
       id="path3300"
       sodipodi:nodetypes="cssssc" />
    <path
       style="fill:#fff6eb;fill-opacity:1;stroke:#aaa59c;stroke-width:3.5;stroke-miterlimit:4;stroke-opacity:1"
       d="M 468.81285,448.7513 C 468.81285,456.06747 463.76576,462.00523 457.54701,462.00523 C 451.32827,462.00523 446.28117,456.06747 446.28117,448.7513 C 446.28117,441.43513 449.45388,438.30895 455.67262,438.30895 C 461.89137,438.30895 466.46986,436.28056 468.81285,448.7513 z"
       id="path3249"
       sodipodi:nodetypes="csssc" />
    <path
       style="fill:#fff6eb;fill-opacity:1;stroke:#aaa59c;stroke-width:3.5;stroke-miterlimit:4;stroke-opacity:1"
       d="M 398.51013,470.28894 C 398.51013,477.60511 393.46304,483.54287 387.24429,483.54287 C 381.02555,483.54287 377.38424,478.5423 377.38424,471.22613 C 377.38424,463.90996 379.64929,463.3697 385.2562,460.67984 C 403.81456,451.77666 399.3677,461.68641 398.51013,470.28894 z"
       id="path3326"
       sodipodi:nodetypes="csssc" />
    <path
       style="fill:#fff6eb;fill-opacity:1;stroke:#aaa59c;stroke-width:3.5;stroke-miterlimit:4;stroke-opacity:1"
       d="M 420.71047,473.93376 C 420.71047,481.24993 417.65147,485.8623 411.43272,485.8623 C 405.21398,485.8623 400.16688,479.92454 400.16688,472.60837 C 400.16688,465.2922 400.31003,458.60318 411.43272,459.35444 C 425.05561,460.27457 420.71047,466.61759 420.71047,473.93376 z"
       id="path3328"
       sodipodi:nodetypes="csssc" />
    <path
       style="fill:#fff6eb;fill-opacity:1;stroke:#aaa59c;stroke-width:3.5;stroke-miterlimit:4;stroke-opacity:1"
       d="M 443.90484,472.60838 C 443.90484,479.92455 438.85775,485.86231 432.639,485.86231 C 426.42026,485.86231 421.37316,479.92455 421.37316,472.60838 C 421.37316,465.29221 424.82705,460.24111 434.95844,460.34849 C 444.25377,460.44702 443.90484,465.29221 443.90484,472.60838 z"
       id="path3330"
       sodipodi:nodetypes="csssc" />
    <path
       style="fill:#fff6eb;fill-opacity:1;stroke:#aaa59c;stroke-width:3.5;stroke-miterlimit:4;stroke-opacity:1"
       d="M 466.43653,472.60837 C 466.43653,479.92454 461.38944,485.8623 455.17069,485.8623 C 448.95195,485.8623 443.90485,479.92454 443.90485,472.60837 C 443.90485,465.2922 444.97577,457.6977 453.8453,461.34253 C 459.59731,463.70625 466.43653,465.2922 466.43653,472.60837 z"
       id="path3332"
       sodipodi:nodetypes="csssc" />
    <path
       style="fill:#fff6eb;fill-opacity:1;stroke:#aaa59c;stroke-width:3.5;stroke-miterlimit:4;stroke-opacity:1"
       d="M 487.64282,458.02905 C 487.64282,465.34522 482.59573,471.28298 476.37698,471.28298 C 470.15824,471.28298 469.79711,470.96839 467.45413,464.12081 C 465.08561,457.19864 470.15824,444.77512 476.37698,444.77512 C 482.59573,444.77512 487.64282,450.71288 487.64282,458.02905 z"
       id="path3334"
       sodipodi:nodetypes="csssc" />
    <path
       style="fill:#fff6eb;fill-opacity:1;stroke:#aaa59c;stroke-width:3.5;stroke-miterlimit:4;stroke-opacity:1"
       d="M 491.619,322.83894 C 491.619,330.15511 486.57191,336.09287 480.35316,336.09287 C 474.13442,336.09287 469.08732,330.15511 469.08732,322.83894 C 469.08732,315.52277 477.4146,309.11641 483.63334,309.11641 C 489.85209,309.11641 491.619,315.52277 491.619,322.83894 z"
       id="path3336"
       sodipodi:nodetypes="csssc" />
    <path
       style="fill:#fff6eb;fill-opacity:1;stroke:#aaa59c;stroke-width:3.5;stroke-miterlimit:4;stroke-opacity:1"
       d="M 492.94439,350.6722 C 492.94439,357.98837 487.8973,363.92613 481.67855,363.92613 C 475.45981,363.92613 470.41271,357.98837 470.41271,350.6722 C 470.41271,343.35603 475.45981,337.41827 481.67855,337.41827 C 487.8973,337.41827 492.94439,343.35603 492.94439,350.6722 z"
       id="path3338" />
    <path
       style="fill:#fff6eb;fill-opacity:1;stroke:#aaa59c;stroke-width:3.5;stroke-miterlimit:4;stroke-opacity:1"
       d="M 492.00516,377.18006 C 492.24966,390.85344 485.24651,390.43399 479.02776,390.43399 C 472.80902,390.43399 469.75001,388.47241 469.75001,381.15624 C 469.75001,378.19298 473.56011,375.7872 474.29585,371.59105 C 474.95891,367.80938 477.03935,363.92613 480.73932,363.92613 C 486.95807,363.92613 491.76065,360.57259 492.00516,377.18006 z"
       id="path3340"
       sodipodi:nodetypes="cssssc" />
    <path
       style="fill:#fff6eb;fill-opacity:1;stroke:#aaa59c;stroke-width:3.5;stroke-miterlimit:4;stroke-opacity:1"
       d="M 491.619,405.01332 C 491.619,412.32949 486.57191,418.26725 480.35316,418.26725 C 477.42422,418.26725 471.475,417.88728 469.47077,415.72931 C 467.2196,413.30547 471.43031,407.00929 471.43031,403.13893 C 471.43031,395.82276 474.13442,391.75939 480.35316,391.75939 C 486.57191,391.75939 491.619,397.69715 491.619,405.01332 z"
       id="path3342"
       sodipodi:nodetypes="cssssc" />
    <path
       style="fill:#fff6eb;fill-opacity:1;stroke:#aaa59c;stroke-width:3.5;stroke-miterlimit:4;stroke-opacity:1"
       d="M 488.96821,432.84658 C 488.96821,440.16275 483.92112,446.10051 477.70237,446.10051 C 471.48363,446.10051 467.43057,440.4941 467.43057,433.17793 C 467.43057,425.86176 472.47767,419.924 478.69641,419.924 C 484.91516,419.924 488.96821,425.53041 488.96821,432.84658 z"
       id="path3344"
       sodipodi:nodetypes="csssc" />
    <path
       style="fill:#fff6eb;fill-opacity:1;stroke:#aaa59c;stroke-width:3.5;stroke-miterlimit:4;stroke-opacity:1"
       d="M 476.04563,308.92232 C 476.04563,310.84156 472.05347,310.34651 470.1034,314.64452 C 468.05657,319.15579 469.03583,325.48973 464.44844,325.48973 C 458.2297,325.48973 453.1826,319.55197 453.1826,312.2358 C 453.1826,304.91963 453.54373,296.63888 459.76247,296.63888 C 465.98122,296.63888 476.04563,301.60615 476.04563,308.92232 z"
       id="path3346"
       sodipodi:nodetypes="cssssc" />
    <path
       style="fill:#fff6eb;fill-opacity:1;stroke:#aaa59c;stroke-width:3.5;stroke-miterlimit:4;stroke-opacity:1"
       d="M 328.32117,481.88613 C 328.32117,489.2023 323.27408,495.14006 317.05533,495.14006 C 310.83659,495.14006 305.78949,489.2023 305.78949,481.88613 C 305.78949,474.56996 310.83659,468.6322 317.05533,468.6322 C 323.27408,468.6322 328.32117,474.56996 328.32117,481.88613 z"
       id="path3348" />
    <path
       style="fill:#fff6eb;fill-opacity:1;stroke:#aaa59c;stroke-width:3.5;stroke-miterlimit:4;stroke-opacity:1"
       d="M 346.87668,484.53692 C 346.87668,491.85309 341.82959,497.79085 335.61084,497.79085 C 329.3921,497.79085 329.49957,491.38449 329.49957,484.06832 C 329.49957,476.75215 329.3921,471.28299 335.61084,471.28299 C 341.82959,471.28299 346.87668,477.22075 346.87668,484.53692 z"
       id="path3350"
       sodipodi:nodetypes="csssc" />
    <path
       style="fill:#fff6eb;fill-opacity:1;stroke:#aaa59c;stroke-width:3.5;stroke-miterlimit:4;stroke-opacity:1"
       d="M 365.43218,491.16388 C 365.43218,498.48005 358.9793,497.85745 352.76055,497.85745 C 346.54181,497.85745 348.99226,498.01145 348.99226,490.69528 C 348.99226,483.37911 347.9476,477.90995 354.16634,477.90995 C 360.38509,477.90995 365.43218,483.84771 365.43218,491.16388 z"
       id="path3352"
       sodipodi:nodetypes="csssc" />
    <path
       style="fill:#fff6eb;fill-opacity:1;stroke:#aaa59c;stroke-width:3.5;stroke-miterlimit:4;stroke-opacity:1"
       d="M 340.24971,460.67984 C 340.24971,467.99601 336.60841,469.71639 330.38966,469.71639 C 324.17092,469.71639 310.04993,468.8528 310.04993,461.53663 C 310.04993,454.22046 319.01635,448.8317 325.23509,448.8317 C 331.45384,448.8317 335.09514,454.30086 340.24971,460.67984 z"
       id="path3354"
       sodipodi:nodetypes="csssc" />
    <path
       style="fill:#fff6eb;fill-opacity:1;stroke:#aaa59c;stroke-width:3.5;stroke-miterlimit:4;stroke-opacity:1"
       d="M 360.43841,466.45001 C 360.43841,473.76618 357.73431,475.95516 350.57837,475.01796 C 344.41228,474.21041 342.12411,472.36039 342.12411,465.04422 C 342.12411,457.72805 344.82822,453.66467 351.04696,453.66467 C 357.26571,453.66467 360.43841,459.13384 360.43841,466.45001 z"
       id="path3356"
       sodipodi:nodetypes="csssc" />
    <path
       style="fill:#fff6eb;fill-opacity:1;stroke:#aaa59c;stroke-width:3.5;stroke-miterlimit:4;stroke-opacity:1"
       d="M 375.79413,469.95759 C 375.79413,477.27376 374.96442,483.21152 368.74567,483.21152 C 362.52693,483.21152 361.22861,476.80516 361.22861,469.48899 C 361.22861,462.17282 370.40497,455.44126 375.77463,458.57805 C 380.58759,461.38963 375.79413,462.64142 375.79413,469.95759 z"
       id="path3358"
       sodipodi:nodetypes="csssc" />
    <path
       style="fill:#fff6eb;fill-opacity:1;stroke:#aaa59c;stroke-width:3.5;stroke-miterlimit:4;stroke-opacity:1"
       d="M 387.96387,493.81467 C 387.96387,501.13084 383.38538,498.16525 377.16663,498.16525 C 370.94789,498.16525 365.43219,501.13084 365.43219,493.81467 C 365.43219,486.4985 370.47929,480.56074 376.69803,480.56074 C 382.91678,480.56074 387.96387,486.4985 387.96387,493.81467 z"
       id="path3360"
       sodipodi:nodetypes="csssc" />
    <path
       style="fill:#fff6eb;fill-opacity:1;stroke:#aaa59c;stroke-width:3.5;stroke-miterlimit:4;stroke-opacity:1"
       d="M 410.49555,495.14006 C 410.49555,502.45623 405.91706,499.02204 399.69831,499.02204 C 393.47957,499.02204 387.96387,502.45623 387.96387,495.14006 C 387.96387,487.82389 393.01097,481.88613 399.22971,481.88613 C 405.44846,481.88613 410.49555,487.82389 410.49555,495.14006 z"
       id="path3362"
       sodipodi:nodetypes="csssc" />
    <path
       style="fill:#fff6eb;fill-opacity:1;stroke:#aaa59c;stroke-width:3.5;stroke-miterlimit:4;stroke-opacity:1"
       d="M 455.94712,489.51689 C 455.94712,496.83306 452.77441,495.74186 446.55566,495.74186 C 440.33692,495.74186 434.35263,502.45623 434.35263,495.14006 C 434.35263,487.82389 437.53434,480.43335 443.27548,482.82332 C 448.08844,484.82691 455.94712,481.78723 455.94712,489.51689 z"
       id="path3364"
       sodipodi:nodetypes="csssc" />
    <path
       style="fill:#fff6eb;fill-opacity:1;stroke:#aaa59c;stroke-width:3.5;stroke-miterlimit:4;stroke-opacity:1"
       d="M 433.02723,496.46545 C 433.02723,503.78162 436.85425,493.56739 420.8242,498.47305 C 414.87768,500.29285 410.49555,501.43863 410.49555,494.12246 C 410.49555,486.80629 415.54265,483.21152 421.76139,483.21152 C 427.98014,483.21152 433.02723,489.14928 433.02723,496.46545 z"
       id="path3366"
       sodipodi:nodetypes="csssc" />
    <path
       style="fill:#fff6eb;fill-opacity:1;stroke:#aaa59c;stroke-width:3.5;stroke-miterlimit:4;stroke-opacity:1"
       d="M 266.02769,378.50546 C 266.02769,385.82163 260.9806,391.75939 254.76185,391.75939 C 248.54311,391.75939 252.11107,385.15893 252.11107,377.84276 C 252.11107,370.52659 248.54311,365.25153 254.76185,365.25153 C 260.9806,365.25153 266.02769,371.18929 266.02769,378.50546 z"
       id="path3368"
       sodipodi:nodetypes="csssc" />
    <path
       style="fill:#fff6eb;fill-opacity:1;stroke:#aaa59c;stroke-width:3.5;stroke-miterlimit:4;stroke-opacity:1"
       d="M 283.5656,369.69631 C 283.5656,377.01248 280.8615,382.48164 274.64275,382.48164 C 268.42401,382.48164 265.2513,374.66949 265.2513,367.35332 C 265.2513,360.03715 268.42401,355.97378 274.64275,355.97378 C 278.39093,355.97378 279.83908,353.91344 281.88745,357.22922 C 283.23762,359.41478 283.5656,366.78975 283.5656,369.69631 z"
       id="path3370"
       sodipodi:nodetypes="cssssc" />
    <path
       style="fill:#fff6eb;fill-opacity:1;stroke:#aaa59c;stroke-width:3.5;stroke-miterlimit:4;stroke-opacity:1"
       d="M 263.04556,407.66411 C 271.46033,418.25797 260.9806,420.91804 254.76185,420.91804 C 248.54311,420.91804 253.10511,412.99219 253.10511,405.67602 C 253.10511,398.35985 248.54311,394.41018 254.76185,394.41018 C 260.9806,394.41018 258.85242,402.38512 263.04556,407.66411 z"
       id="path3372"
       sodipodi:nodetypes="cssss" />
    <path
       style="fill:#fff6eb;fill-opacity:1;stroke:#aaa59c;stroke-width:3.5;stroke-miterlimit:4;stroke-opacity:1"
       d="M 280.27567,398.71771 C 288.22803,410.01006 279.53611,410.3149 273.31736,410.3149 C 267.09862,410.3149 262.05152,404.37714 262.05152,397.06097 C 262.05152,389.7448 267.09862,383.80704 273.31736,383.80704 C 279.53611,383.80704 280.27567,391.40154 280.27567,398.71771 z"
       id="path3374"
       sodipodi:nodetypes="csssc" />
    <path
       style="fill:#fff6eb;fill-opacity:1;stroke:#aaa59c;stroke-width:3.5;stroke-miterlimit:4;stroke-opacity:1"
       d="M 269.00983,439.1422 C 269.00983,446.45837 260.30717,453.90959 259.40073,447.75726 C 258.81491,443.78108 255.7559,440.16275 255.7559,432.84658 C 255.7559,425.53041 251.1939,422.24344 257.41264,422.24344 C 263.63139,422.24344 269.00983,431.82603 269.00983,439.1422 z"
       id="path3376"
       sodipodi:nodetypes="csssc" />
    <path
       style="fill:#fff6eb;fill-opacity:1;stroke:#aaa59c;stroke-width:3.5;stroke-miterlimit:4;stroke-opacity:1"
       d="M 280.60701,426.21962 C 280.60701,430.09544 284.39275,433.67741 284.30529,436.13987 C 284.22767,438.32565 280.60638,439.62936 275.96814,439.47355 C 269.75291,439.26476 271.51028,431.79305 267.68443,425.55692 C 262.38286,416.91536 269.7494,412.96569 275.96814,412.96569 C 282.18689,412.96569 280.60701,418.90345 280.60701,426.21962 z"
       id="path3378"
       sodipodi:nodetypes="cssssc" />
    <path
       style="fill:#fff6eb;fill-opacity:1;stroke:#aaa59c;stroke-width:3.5;stroke-miterlimit:4;stroke-opacity:1"
       d="M 289.88477,455.37827 C 289.88477,462.69444 284.83768,468.6322 278.61893,468.6322 C 272.40019,468.6322 267.35309,462.69444 267.35309,455.37827 C 267.35309,448.0621 272.40019,442.12434 278.61893,442.12434 C 284.83768,442.12434 289.88477,448.0621 289.88477,455.37827 z"
       id="path3380" />
    <path
       style="fill:#fff6eb;fill-opacity:1;stroke:#aaa59c;stroke-width:3.5;stroke-miterlimit:4;stroke-opacity:1"
       d="M 305.1268,450.07669 C 315.30723,456.68311 303.39319,458.02905 297.17444,458.02905 C 290.9557,458.02905 293.21886,450.67374 288.89073,444.77512 C 284.25186,438.45299 290.9557,431.52119 297.17444,431.52119 C 303.39319,431.52119 299.63559,446.51327 305.1268,450.07669 z"
       id="path3382"
       sodipodi:nodetypes="cssss" />
    <path
       style="fill:#fff6eb;fill-opacity:1;stroke:#aaa59c;stroke-width:3.5;stroke-miterlimit:4;stroke-opacity:1"
       d="M 308.44028,468.6322 C 308.44028,475.94837 303.39319,481.88613 297.17444,481.88613 C 290.9557,481.88613 285.9086,475.94837 285.9086,468.6322 C 285.9086,461.31603 290.9557,455.37827 297.17444,455.37827 C 303.39319,455.37827 308.44028,461.31603 308.44028,468.6322 z"
       id="path3384" />
    <path
       style="fill:#fff6eb;fill-opacity:1;stroke:#aaa59c;stroke-width:3.5;stroke-miterlimit:4;stroke-opacity:1"
       d="M 388.23833,295.00569 C 389.17552,310.75661 383.65984,304.51084 377.44109,304.51084 C 371.22235,304.51084 365.70665,302.32186 365.70665,295.00569 C 365.70665,287.68952 370.75375,281.75176 376.97249,281.75176 C 383.19124,281.75176 388.23833,287.68952 388.23833,295.00569 z"
       id="path3386"
       sodipodi:nodetypes="csssc" />
    <path
       style="fill:#fff6eb;fill-opacity:1;stroke:#aaa59c;stroke-width:3.5;stroke-miterlimit:4;stroke-opacity:1"
       d="M 364.38125,292.3549 C 365.78704,310.44881 358.86556,301.39145 352.64681,301.39145 C 346.42807,301.39145 341.84957,299.67107 341.84957,292.3549 C 341.84957,285.03873 346.89667,279.10097 353.11541,279.10097 C 359.33416,279.10097 364.38125,285.03873 364.38125,292.3549 z"
       id="path3388"
       sodipodi:nodetypes="csssc" />
    <path
       style="fill:#fff6eb;fill-opacity:1;stroke:#aaa59c;stroke-width:3.5;stroke-miterlimit:4;stroke-opacity:1"
       d="M 340.87154,291.17116 C 341.49634,294.82924 340.70316,301.89151 338.03925,304.29047 C 335.69962,306.3974 333.18367,301.14491 330.0743,301.14491 C 323.85556,301.14491 318.33986,298.48733 318.33986,291.17116 C 318.33986,283.85499 323.38696,277.91723 329.6057,277.91723 C 335.82445,277.91723 340.87154,283.85499 340.87154,291.17116 z"
       id="path3390"
       sodipodi:nodetypes="cssssc" />
    <path
       style="fill:#fff6eb;fill-opacity:1;stroke:#aaa59c;stroke-width:3.5;stroke-miterlimit:4;stroke-opacity:1"
       d="M 314.01631,272.474 C 314.01631,279.79017 307.56343,282.91635 301.34468,282.91635 C 295.12594,282.91635 291.48463,279.79017 291.48463,272.474 C 291.48463,265.15783 298.40612,266.24903 304.62486,266.24903 C 310.84361,266.24903 314.01631,265.15783 314.01631,272.474 z"
       id="path3392"
       sodipodi:nodetypes="csssc" />
    <path
       style="fill:#fff6eb;fill-opacity:1;stroke:#aaa59c;stroke-width:3.5;stroke-miterlimit:4;stroke-opacity:1"
       d="M 294.13541,285.72793 C 294.13541,293.0441 300.2036,304.41846 280.05799,297.10747 C 261.18395,290.25795 271.60373,293.0441 271.60373,285.72793 C 271.60373,278.41176 276.65083,272.474 282.86957,272.474 C 289.08832,272.474 294.13541,278.41176 294.13541,285.72793 z"
       id="path3394"
       sodipodi:nodetypes="csssc" />
    <path
       style="fill:#fff6eb;fill-opacity:1;stroke:#aaa59c;stroke-width:3.5;stroke-miterlimit:4;stroke-opacity:1"
       d="M 279.55609,320.18816 C 279.55609,327.50433 274.509,333.44209 268.29025,333.44209 C 262.07151,333.44209 257.02441,327.50433 257.02441,320.18816 C 257.02441,312.87199 262.07151,306.93423 268.29025,306.93423 C 274.509,306.93423 279.55609,312.87199 279.55609,320.18816 z"
       id="path3396" />
    <path
       style="fill:#fff6eb;fill-opacity:1;stroke:#aaa59c;stroke-width:3.5;stroke-miterlimit:4;stroke-opacity:1"
       d="M 270.27833,348.02141 C 270.27833,355.33758 265.23124,361.27534 259.01249,361.27534 C 252.79375,361.27534 250.5376,356.2679 250.5376,348.95173 C 250.5376,341.63556 252.79375,334.76748 259.01249,334.76748 C 265.23124,334.76748 270.27833,340.70524 270.27833,348.02141 z"
       id="path3398"
       sodipodi:nodetypes="csssc" />
    <path
       style="fill:#fff6eb;fill-opacity:1;stroke:#aaa59c;stroke-width:3.5;stroke-miterlimit:4;stroke-opacity:1"
       d="M 318.46109,295.16648 C 318.46109,302.48265 310.13382,302.32865 303.91507,302.32865 C 297.69633,302.32865 295.46081,299.67107 295.46081,292.3549 C 295.46081,285.03873 304.2593,286.13693 309.53823,282.84975 C 318.56857,277.22658 318.46109,287.85031 318.46109,295.16648 z"
       id="path3400"
       sodipodi:nodetypes="csssc" />
    <path
       style="fill:#fff6eb;fill-opacity:1;stroke:#aaa59c;stroke-width:3.5;stroke-miterlimit:4;stroke-opacity:1"
       d="M 294.13541,309.58501 C 292.72962,327.21032 289.08832,322.83894 282.86957,322.83894 C 279.81979,322.83894 282.67497,316.72488 280.17728,311.59489 C 278.77589,308.71659 269.26074,304.87845 269.26074,301.15026 C 269.26074,293.83409 276.18223,299.61126 282.40097,299.61126 C 288.61972,299.61126 294.13541,299.45726 294.13541,309.58501 z"
       id="path3402"
       sodipodi:nodetypes="cssssc" />
    <path
       style="fill:#fff6eb;fill-opacity:1;stroke:#aaa59c;stroke-width:3.5;stroke-miterlimit:4;stroke-opacity:1"
       d="M 281.49708,343.34923 C 281.49708,350.6654 281.13596,353.32298 274.91721,353.32298 C 268.69847,353.32298 270.21173,346.91662 270.21173,339.60045 C 270.21173,332.28428 275.21449,333.30585 280.54038,330.0953 C 286.75913,326.34652 281.49708,336.03306 281.49708,343.34923 z"
       id="path3404"
       sodipodi:nodetypes="csssc" />
    <path
       style="fill:#fff6eb;fill-opacity:1;stroke:#aaa59c;stroke-width:3.5;stroke-miterlimit:4;stroke-opacity:1"
       d="M 453.05513,300.46806 C 453.05513,307.78423 454.5684,308.09883 448.34965,308.09883 C 442.13091,308.09883 439.4268,304.50405 439.4268,297.18788 C 439.4268,289.87171 436.50774,285.80834 442.72648,285.80834 C 448.94523,285.80834 453.05513,293.15189 453.05513,300.46806 z"
       id="path3406"
       sodipodi:nodetypes="csssc" />
    <path
       style="fill:#fff6eb;fill-opacity:1;stroke:#aaa59c;stroke-width:3.5;stroke-miterlimit:4;stroke-opacity:1"
       d="M 437.65526,298.45075 C 437.65526,305.76692 431.20238,302.80133 424.98363,302.80133 C 418.76489,302.80133 413.24919,301.54954 413.24919,294.23337 C 413.24919,286.9172 422.04507,279.10505 428.26381,279.10505 C 434.48256,279.10505 437.65526,291.13458 437.65526,298.45075 z"
       id="path3408"
       sodipodi:nodetypes="csssc" />
    <path
       style="fill:#fff6eb;fill-opacity:1;stroke:#aaa59c;stroke-width:3.5;stroke-miterlimit:4;stroke-opacity:1"
       d="M 414.55213,296.41148 C 414.55213,303.72765 412.49988,305.28468 406.28113,305.28468 C 400.06239,305.28468 390.61466,302.32186 390.61466,295.00569 C 390.61466,287.68952 395.66176,281.75176 401.8805,281.75176 C 408.09925,281.75176 414.55213,289.09531 414.55213,296.41148 z"
       id="path3410"
       sodipodi:nodetypes="csssc" />
    <path
       style="fill:#fff6eb;fill-opacity:1;stroke:#aaa59c;stroke-width:3.5;stroke-miterlimit:4;stroke-opacity:1"
       d="M 448.93195,269.82322 C 448.93195,277.13939 442.47907,284.01434 436.26032,284.01434 C 430.04158,284.01434 430.14905,278.07658 430.14905,270.76041 C 430.14905,263.44424 430.04158,262.66105 436.26032,262.66105 C 442.47907,262.66105 448.93195,262.50705 448.93195,269.82322 z"
       id="path3412"
       sodipodi:nodetypes="csssc" />
    <path
       style="fill:#fff6eb;fill-opacity:1;stroke:#aaa59c;stroke-width:3.5;stroke-miterlimit:4;stroke-opacity:1"
       d="M 470.13824,279.10098 C 470.13824,286.41715 465.09115,292.35491 458.8724,292.35491 C 452.65366,292.35491 447.60656,286.41715 447.60656,279.10098 C 447.60656,271.78481 452.65366,265.84705 458.8724,265.84705 C 465.09115,265.84705 470.13824,271.78481 470.13824,279.10098 z"
       id="path3414" />
    <path
       style="fill:#fff6eb;fill-opacity:1;stroke:#aaa59c;stroke-width:3.5;stroke-miterlimit:4;stroke-opacity:1"
       d="M 488.69375,293.6803 C 488.69375,300.99647 486.45824,305.52844 480.23949,305.52844 C 474.02075,305.52844 471.78524,300.99647 468.03646,296.49188 C 463.35648,290.86835 471.20917,280.42637 477.42791,280.42637 C 483.64666,280.42637 488.69375,286.36413 488.69375,293.6803 z"
       id="path3416"
       sodipodi:nodetypes="csssc" />
    <path
       style="fill:#fff6eb;fill-opacity:1;stroke:#aaa59c;stroke-width:3.5;stroke-miterlimit:4;stroke-opacity:1"
       d="M 382.66229,269.82322 C 382.66229,277.13939 386.87539,279.67802 369.05346,283.54575 C 359.39156,285.64258 364.81658,277.13939 364.81658,269.82322 C 364.81658,262.50705 365.17771,256.56929 371.39645,256.56929 C 377.6152,256.56929 382.66229,262.50705 382.66229,269.82322 z"
       id="path3418"
       sodipodi:nodetypes="csssc" />
    <path
       style="fill:#fff6eb;fill-opacity:1;stroke:#aaa59c;stroke-width:3.5;stroke-miterlimit:4;stroke-opacity:1"
       d="M 404.17638,272.94261 C 404.17638,280.25878 396.78631,283.85355 390.56756,283.85355 C 384.34882,283.85355 383.98769,279.79018 383.98769,272.47401 C 383.98769,265.15784 389.03479,259.22008 395.25353,259.22008 C 401.47228,259.22008 404.17638,265.62644 404.17638,272.94261 z"
       id="path3420"
       sodipodi:nodetypes="csssc" />
    <path
       style="fill:#fff6eb;fill-opacity:1;stroke:#aaa59c;stroke-width:3.5;stroke-miterlimit:4;stroke-opacity:1"
       d="M 427.72566,271.14862 C 427.72566,278.46479 422.67857,284.40255 416.45982,284.40255 C 410.24108,284.40255 405.19398,278.46479 405.19398,271.14862 C 405.19398,263.83245 410.24108,257.89469 416.45982,257.89469 C 422.67857,257.89469 427.72566,263.83245 427.72566,271.14862 z"
       id="path3422" />
    <path
       style="fill:#fff6eb;fill-opacity:1;stroke:#aaa59c;stroke-width:3.5;stroke-miterlimit:4;stroke-opacity:1"
       d="M 362.7814,265.84704 C 362.7814,273.16321 358.20291,276.75798 351.98416,276.75798 C 345.76542,276.75798 340.24972,279.72357 340.24972,265.84704 C 340.24972,258.53087 344.82822,258.68487 351.04696,258.68487 C 357.26571,258.68487 362.7814,258.53087 362.7814,265.84704 z"
       id="path3424"
       sodipodi:nodetypes="csssc" />
    <path
       style="fill:#fff6eb;fill-opacity:1;stroke:#aaa59c;stroke-width:3.5;stroke-miterlimit:4;stroke-opacity:1"
       d="M 338.92432,268.49783 C 340.79871,276.75119 329.19126,277.06579 322.97251,277.06579 C 316.75377,277.06579 316.39264,275.814 316.39264,268.49783 C 316.39264,261.18166 321.43974,259.92987 327.65848,259.92987 C 333.87723,259.92987 338.92432,261.18166 338.92432,268.49783 z"
       id="path3426"
       sodipodi:nodetypes="csssc" />
    <path
       style="fill:#000000;fill-opacity:1;stroke:#f9f9f9"
       d="M 353.3879,253.86959 C 323.03381,253.9833 290.03804,255.98815 271.4504,274.11959 C 248.30109,296.70073 247.2004,343.90522 247.2004,378.49459 C 247.2004,417.55036 250.91125,460.39614 279.5129,483.24459 C 301.27495,500.62924 343.57246,503.08835 373.7629,503.08834 C 411.89015,503.08834 460.67592,505.02156 483.8879,478.74459 C 503.21264,456.86816 502.43138,408.35505 502.43137,377.11144 C 502.43137,340.8619 504.48944,296.36183 479.35665,273.58834 C 456.80796,253.15635 406.80434,253.93209 373.7629,253.93209 C 367.25138,253.93209 360.39269,253.84335 353.3879,253.86959 z M 353.79415,263.40084 C 360.26471,263.3766 366.59174,263.43209 372.60665,263.43209 C 403.12817,263.4321 449.30889,262.71462 470.1379,281.58834 C 493.35389,302.62499 492.27919,345.04092 492.27919,378.52584 C 492.2792,407.38665 492.17632,450.91159 474.3254,471.11959 C 452.8837,495.39251 407.8261,493.58834 372.60665,493.58834 C 344.71872,493.58835 305.64649,491.33464 285.54415,475.27584 C 259.12383,454.16991 255.66915,414.60299 255.66915,378.52584 C 255.66914,346.57448 256.69159,302.94731 278.0754,282.08834 C 295.24541,265.33973 325.75504,263.50588 353.79415,263.40084 z"
       id="path2389"
       sodipodi:nodetypes="cssssssssccssssssssc" />
    <path
       style="fill:url(#linearGradient3234);fill-opacity:1;stroke:#000000;stroke-width:3.4519999;stroke-miterlimit:4;stroke-dasharray:none;stroke-opacity:1"
       d="M 307.71024,334.43578 C 319.90463,326.96824 351.43251,333.21613 372.02918,333.0617 C 391.90131,332.91269 424.7492,328.10535 442.57059,333.48209 C 449.03088,352.96833 446.30661,403.01975 445.22512,426.56782 C 427.9278,430.71034 397.14315,431.32808 377.01603,431.47279 C 356.67551,431.61902 324.09971,430.67944 308.66154,423.40476 C 305.24574,401.86484 302.42982,362.1125 307.71024,334.43578 z"
       id="rect2434"
       sodipodi:nodetypes="csccscc" />
    <path
       style="fill:none;fill-rule:evenodd;stroke:#ffe0c1;stroke-width:2.5;stroke-linecap:butt;stroke-linejoin:miter;stroke-miterlimit:4;stroke-dasharray:none;stroke-opacity:1"
       d="M 307.42157,347.82619 C 308.75931,348.1075 310.37484,348.2636 312.73647,347.25773 C 324.42271,343.12686 343.52977,343.71686 350.79076,344.72939 C 375.89201,350.33191 396.64198,353.64846 422.31138,351.39263 C 429.6531,350.81655 436.19158,350.42015 443.71363,349.82992"
       id="path3213"
       sodipodi:nodetypes="ccccs" />
    <path
       style="fill:none;fill-rule:evenodd;stroke:#ffe0c1;stroke-width:2.5;stroke-linecap:butt;stroke-linejoin:miter;stroke-miterlimit:4;stroke-dasharray:none;stroke-opacity:1"
       d="M 306.48044,368.99392 C 314.5842,369.18897 320.99973,366.43826 329.32223,365.78522 C 336.6758,365.20821 343.31308,364.7153 350.21122,365.56253 C 357.11344,366.41026 372.78911,368.33205 377.95708,370.46733 C 401.18952,378.97837 419.65086,371.8951 444.88505,371.46452"
       id="path3215"
       sodipodi:nodetypes="csscc" />
    <path
       style="fill:none;fill-rule:evenodd;stroke:#ffe0c1;stroke-width:2.5;stroke-linecap:butt;stroke-linejoin:miter;stroke-miterlimit:4;stroke-dasharray:none;stroke-opacity:1"
       d="M 307.23603,394.44291 C 316.06987,393.78184 330.66327,389.89788 339.49825,389.56811 C 360.60792,388.78017 364.77304,393.38033 385.69685,396.07634 C 397.30919,397.22228 408.41008,397.42243 422.56079,396.70708 C 428.86047,396.38861 440.58388,395.2907 444.72992,395.45732"
       id="path3217"
       sodipodi:nodetypes="cscsc" />
    <path
       style="fill:none;fill-rule:evenodd;stroke:#ffe0c1;stroke-width:2.5;stroke-linecap:butt;stroke-linejoin:miter;stroke-miterlimit:4;stroke-dasharray:none;stroke-opacity:1"
       d="M 309.05767,413.38721 C 311.57207,413.10522 312.73121,412.90354 315.07562,412.24795 C 321.97851,410.31768 330.75571,411.01759 337.93497,410.45426 C 345.49669,409.86092 352.46544,412.14935 358.26791,413.10338 C 381.20633,415.6123 389.12058,418.3403 409.69267,415.98126 C 416.83622,415.42073 437.57489,414.68478 443.97967,415.11538"
       id="path3219"
       sodipodi:nodetypes="cssccs" />
  </g>
</svg>
