<?xml version="1.0" encoding="UTF-8" standalone="no"?>
<!-- Created with Inkscape (http://www.inkscape.org/) -->
<svg
   xmlns:dc="http://purl.org/dc/elements/1.1/"
   xmlns:cc="http://creativecommons.org/ns#"
   xmlns:rdf="http://www.w3.org/1999/02/22-rdf-syntax-ns#"
   xmlns:svg="http://www.w3.org/2000/svg"
   xmlns="http://www.w3.org/2000/svg"
   xmlns:xlink="http://www.w3.org/1999/xlink"
   xmlns:sodipodi="http://sodipodi.sourceforge.net/DTD/sodipodi-0.dtd"
   xmlns:inkscape="http://www.inkscape.org/namespaces/inkscape"
   width="200.69902"
   height="200.7"
   id="svg2"
   sodipodi:version="0.32"
   inkscape:version="0.46"
   sodipodi:docname="client-draft.svg"
   inkscape:output_extension="org.inkscape.output.svg.inkscape"
   version="1.0">
  <defs
     id="defs4">
    <linearGradient
       id="linearGradient6030">
      <stop
         style="stop-color:#ff5a06;stop-opacity:1;"
         offset="0"
         id="stop6032" />
      <stop
         style="stop-color:#f4f4f4;stop-opacity:0.91874999;"
         offset="1"
         id="stop6034" />
    </linearGradient>
    <linearGradient
       id="linearGradient2199">
      <stop
         style="stop-color:#ff8a3c;stop-opacity:1;"
         offset="0"
         id="stop2201" />
      <stop
         id="stop2207"
         offset="1"
         style="stop-color:#ff0004;stop-opacity:1;" />
    </linearGradient>
    <inkscape:perspective
       sodipodi:type="inkscape:persp3d"
       inkscape:vp_x="739.6529 : 373.56717 : 1"
       inkscape:vp_y="0 : 1000 : 0"
       inkscape:vp_z="230.26288 : 328.56484 : 1"
       inkscape:persp3d-origin="542.76858 : 184.3266 : 1"
       id="perspective3310" />
    <linearGradient
       inkscape:collect="always"
       id="linearGradient3202">
      <stop
         style="stop-color:#241f1c;stop-opacity:1;"
         offset="0"
         id="stop3204" />
      <stop
         style="stop-color:#241f1c;stop-opacity:0;"
         offset="1"
         id="stop3206" />
    </linearGradient>
    <linearGradient
       id="linearGradient3185">
      <stop
         style="stop-color:#ff9955;stop-opacity:1;"
         offset="0"
         id="stop3188" />
      <stop
         style="stop-color:#ffc15f;stop-opacity:1;"
         offset="1"
         id="stop3190" />
    </linearGradient>
    <linearGradient
       id="linearGradient3183">
      <stop
         style="stop-color:#5aa02c;stop-opacity:1;"
         offset="0"
         id="stop3185" />
      <stop
         style="stop-color:#ffffff;stop-opacity:1;"
         offset="1"
         id="stop3187" />
    </linearGradient>
    <linearGradient
       id="linearGradient3793">
      <stop
         style="stop-color:#d45500;stop-opacity:1;"
         offset="0"
         id="stop3795" />
      <stop
         style="stop-color:#ffffff;stop-opacity:1;"
         offset="1"
         id="stop3797" />
    </linearGradient>
    <linearGradient
       id="linearGradient3787">
      <stop
         id="stop3789"
         offset="0"
         style="stop-color:#0044aa;stop-opacity:1;" />
      <stop
         id="stop3791"
         offset="1"
         style="stop-color:#ffffff;stop-opacity:1;" />
    </linearGradient>
    <linearGradient
       id="linearGradient3779">
      <stop
         style="stop-color:#0044aa;stop-opacity:1;"
         offset="0"
         id="stop3781" />
      <stop
         style="stop-color:#ffffff;stop-opacity:1;"
         offset="1"
         id="stop3783" />
    </linearGradient>
    <inkscape:perspective
       id="perspective3610"
       inkscape:persp3d-origin="221.15789 : 206.3266 : 1"
       inkscape:vp_z="533.66359 : 350.56484 : 1"
       inkscape:vp_y="0 : 1000 : 0"
       inkscape:vp_x="24.27357 : 395.56717 : 1"
       sodipodi:type="inkscape:persp3d" />
    <inkscape:perspective
       id="perspective3566"
       inkscape:persp3d-origin="120.26412 : 357.96596 : 1"
       inkscape:vp_z="-6.1759872 : 652.44276 : 1"
       inkscape:vp_y="0 : 1000 : 0"
       inkscape:vp_x="-132.70002 : 570.05387 : 1"
       sodipodi:type="inkscape:persp3d" />
    <inkscape:perspective
       id="perspective3536"
       inkscape:persp3d-origin="338.06729 : 312.2713 : 1"
       inkscape:vp_z="-2.1321464 : 583.90076 : 1"
       inkscape:vp_y="0 : 1000 : 0"
       inkscape:vp_x="511.41193 : 583.20841 : 1"
       sodipodi:type="inkscape:persp3d" />
    <inkscape:perspective
       sodipodi:type="inkscape:persp3d"
       inkscape:vp_x="156.39308 : 600.95466 : 1"
       inkscape:vp_y="0 : 1000 : 0"
       inkscape:vp_z="676.93716 : 610.64701 : 1"
       inkscape:persp3d-origin="336.73772 : 339.01755 : 1"
       id="perspective10" />
    <filter
       inkscape:collect="always"
       id="filter3388">
      <feGaussianBlur
         inkscape:collect="always"
         stdDeviation="2.3452535"
         id="feGaussianBlur3390" />
    </filter>
    <filter
       inkscape:collect="always"
       id="filter3392">
      <feGaussianBlur
         inkscape:collect="always"
         stdDeviation="2.3452535"
         id="feGaussianBlur3394" />
    </filter>
    <filter
       inkscape:collect="always"
       id="filter3396">
      <feGaussianBlur
         inkscape:collect="always"
         stdDeviation="2.3452535"
         id="feGaussianBlur3398" />
    </filter>
    <filter
       inkscape:collect="always"
       id="filter3400">
      <feGaussianBlur
         inkscape:collect="always"
         stdDeviation="2.3452535"
         id="feGaussianBlur3402" />
    </filter>
    <linearGradient
       inkscape:collect="always"
       xlink:href="#linearGradient3787"
       id="linearGradient3785"
       x1="178.90833"
       y1="474.16821"
       x2="669.53217"
       y2="371.16821"
       gradientUnits="userSpaceOnUse"
       gradientTransform="matrix(0.355849,0,0,0.355849,235.97017,278.66226)" />
    <linearGradient
       inkscape:collect="always"
       xlink:href="#linearGradient3793"
       id="linearGradient3799"
       x1="378.5575"
       y1="474.16821"
       x2="707.18134"
       y2="373.16821"
       gradientUnits="userSpaceOnUse"
       gradientTransform="matrix(0.3565014,0,0,0.3565014,269.83255,278.27883)" />
    <linearGradient
       inkscape:collect="always"
       xlink:href="#linearGradient3183"
       id="linearGradient3189"
       x1="282.59299"
       y1="419.44022"
       x2="732.7168"
       y2="232.44022"
       gradientUnits="userSpaceOnUse"
       gradientTransform="matrix(0.3567597,0,0,0.3567597,250.57207,272.23642)" />
    <linearGradient
       inkscape:collect="always"
       xlink:href="#linearGradient3185"
       id="linearGradient3192"
       x1="190.43913"
       y1="283.13101"
       x2="333.83002"
       y2="283.13101"
       gradientUnits="userSpaceOnUse" />
    <linearGradient
       inkscape:collect="always"
       xlink:href="#linearGradient3185"
       id="linearGradient3200"
       x1="190.43913"
       y1="283.13101"
       x2="333.83002"
       y2="283.13101"
       gradientUnits="userSpaceOnUse" />
    <linearGradient
       inkscape:collect="always"
       xlink:href="#linearGradient3202"
       id="linearGradient3208"
       x1="410.00946"
       y1="304.15118"
       x2="551.49274"
       y2="304.15118"
       gradientUnits="userSpaceOnUse"
       gradientTransform="translate(12.727922,-4.9710089)" />
    <linearGradient
       inkscape:collect="always"
       xlink:href="#linearGradient3185"
       id="linearGradient3216"
       x1="190.43913"
       y1="283.13101"
       x2="333.83002"
       y2="283.13101"
       gradientUnits="userSpaceOnUse" />
    <radialGradient
       inkscape:collect="always"
       xlink:href="#linearGradient6030"
       id="radialGradient3706"
       gradientUnits="userSpaceOnUse"
       gradientTransform="matrix(0.8098785,0,0,0.7985646,328.12502,425.64912)"
       spreadMethod="pad"
       cx="65.419197"
       cy="64.112488"
       fx="65.419197"
       fy="64.112488"
       r="56.731148" />
    <linearGradient
       inkscape:collect="always"
       xlink:href="#linearGradient2199"
       id="linearGradient3708"
       gradientUnits="userSpaceOnUse"
       gradientTransform="matrix(0.5021558,7.3792758e-2,-7.4844021e-2,0.4951026,209.21297,205.35597)"
       x1="421.51001"
       y1="471.62057"
       x2="442.452"
       y2="556.76221" />
  </defs>
  <sodipodi:namedview
     id="base"
     pagecolor="#ffffff"
     bordercolor="#666666"
     borderopacity="1.0"
     gridtolerance="10000"
     guidetolerance="10"
     objecttolerance="10"
     inkscape:pageopacity="0.0"
     inkscape:pageshadow="2"
     inkscape:zoom="2.8284271"
     inkscape:cx="43.853743"
     inkscape:cy="128.04767"
     inkscape:document-units="px"
     inkscape:current-layer="layer1"
     showgrid="false"
     inkscape:window-width="1920"
     inkscape:window-height="973"
     inkscape:window-x="0"
     inkscape:window-y="29" />
  <metadata
     id="metadata7">
    <rdf:RDF>
      <cc:Work
         rdf:about="">
        <dc:format>image/svg+xml</dc:format>
        <dc:type
           rdf:resource="http://purl.org/dc/dcmitype/StillImage" />
      </cc:Work>
    </rdf:RDF>
  </metadata>
  <g
     inkscape:label="Layer 1"
     inkscape:groupmode="layer"
     id="layer1"
     transform="translate(-277.14379,-325.64461)">
    <path
       style="fill:url(#linearGradient3189);fill-opacity:1;stroke:#333333;stroke-width:1.78379822;stroke-miterlimit:4;stroke-dasharray:none"
       d="M 358.37757,387.26022 C 362.9252,381.899 374.17721,382.26642 381.22743,382.26655 C 388.2759,382.26668 401.27678,383.31913 404.50642,389.64642 C 414.43374,409.09536 404.32623,461.49033 404.32623,461.49033 L 357.83699,461.49033 C 357.83699,461.49033 343.78004,404.4693 358.37757,387.26022 z"
       id="path2392"
       sodipodi:nodetypes="cssccs"
       inkscape:export-filename="/home/nemo/path2436.png"
       inkscape:export-xdpi="6.9464927"
       inkscape:export-ydpi="6.9464927" />
    <path
       sodipodi:type="arc"
       style="fill:url(#linearGradient3200);fill-opacity:1;stroke:#333333;stroke-width:5;stroke-miterlimit:4;stroke-dasharray:none"
       id="path2394"
       sodipodi:cx="262.13458"
       sodipodi:cy="283.13101"
       sodipodi:rx="69.19545"
       sodipodi:ry="69.19545"
       d="M 331.33003,283.13101 A 69.19545,69.19545 0 1 1 192.93913,283.13101 A 69.19545,69.19545 0 1 1 331.33003,283.13101 z"
       transform="matrix(0.3567596,0,0,0.3567596,287.56257,260.21294)"
       inkscape:export-filename="/home/nemo/path2436.png"
       inkscape:export-xdpi="6.9464927"
       inkscape:export-ydpi="6.9464927" />
    <path
       style="opacity:0.36160715;fill:#241f1c;fill-opacity:1;stroke:none;stroke-opacity:1;filter:url(#filter3400)"
       d="M 255.25912,357.67461 C 245.3869,357.67443 232.54307,357.42133 220.54037,359.04961 C 208.53767,360.67789 197.36164,364.1889 190.85287,371.86211 C 180.50991,384.05546 175.29278,403.16816 173.22787,424.98711 C 171.16296,446.80606 172.26411,471.31678 174.63412,494.33086 C 179.37415,540.35903 189.22787,580.36211 189.22787,580.36211 L 189.32162,580.73711 L 189.69662,580.73711 L 320.00912,580.73711 L 320.41537,580.73711 L 320.50912,580.33086 C 320.50912,580.33086 321.81574,520.98923 331.24345,526.64206 C 334.03741,502.8122 336.43466,473.72783 335.96599,446.85969 C 335.49732,419.99155 331.73182,394.43811 323.22798,377.77793 C 318.12421,367.77896 303.32095,361.26513 289.06205,358.47258 C 277.36792,356.18233 264.18377,357.67476 255.25912,357.67461 z M 255.25912,358.67461 C 264.13892,358.67476 276.41281,359.27852 288.00912,361.54961 C 302.14875,364.3188 315.22807,369.59169 320.07162,379.08086 C 328.43736,395.47049 331.72918,420.43947 332.19662,447.23711 C 332.66406,474.03475 330.33104,502.68525 327.54037,526.48711 C 323.96344,556.995 319.71699,579.14343 319.60287,579.73711 L 190.10287,579.73711 C 189.96002,579.15617 180.33094,539.84567 175.63412,494.23711 C 173.26832,471.26395 172.17271,446.79682 174.22787,425.08086 C 176.28303,403.3649 181.48734,384.41234 191.60287,372.48711 C 197.84116,365.13276 208.80236,361.63193 220.69662,360.01836 C 232.59088,358.40479 245.36953,358.67443 255.25912,358.67461 z"
       id="rect2385"
       sodipodi:nodetypes="csssscccccccsssccssssccssssc"
       inkscape:export-filename="/home/nemo/path2436.png"
       inkscape:export-xdpi="6.9464927"
       inkscape:export-ydpi="6.9464927"
       transform="matrix(0.3558489,0,0,0.3558489,236.42296,280.4312)" />
    <path
       style="fill:url(#linearGradient3785);fill-opacity:1;stroke:#333333;stroke-width:1.77924466;stroke-miterlimit:4;stroke-dasharray:none"
       d="M 306.6044,412.86733 C 311.14042,407.5198 322.36371,407.88628 329.39593,407.88641 C 332.56378,407.88647 336.93706,408.09964 341.081,408.91121 C 346.1338,409.90078 350.84562,411.78003 352.6155,415.24745 C 358.61853,427.00818 357.27688,450.84679 355.28959,467.79649 C 353.99886,478.80525 352.43577,486.90796 352.43577,486.90796 L 306.0652,486.90796 C 306.0652,486.90796 292.04413,430.03248 306.6044,412.86733 z"
       sodipodi:nodetypes="cssssccs"
       id="path33"
       inkscape:export-filename="/home/nemo/path2436.png"
       inkscape:export-xdpi="6.9464927"
       inkscape:export-ydpi="6.9464927" />
    <path
       sodipodi:type="arc"
       style="fill:url(#linearGradient3192);fill-opacity:1;stroke:#333333;stroke-width:5;stroke-miterlimit:4;stroke-dasharray:none"
       id="path2383"
       sodipodi:cx="262.13458"
       sodipodi:cy="283.13101"
       sodipodi:rx="69.19545"
       sodipodi:ry="69.19545"
       d="M 331.33003,283.13101 A 69.19545,69.19545 0 1 1 192.93913,283.13101 A 69.19545,69.19545 0 1 1 331.33003,283.13101 z"
       transform="matrix(0.3558489,0,0,0.3558489,235.61439,286.14425)"
       inkscape:export-filename="/home/nemo/path2436.png"
       inkscape:export-xdpi="6.9464927"
       inkscape:export-ydpi="6.9464927" />
    <path
       style="opacity:0.36160715;fill:#241f1c;fill-opacity:1;stroke:none;stroke-width:1;stroke-opacity:1;filter:url(#filter3388)"
       d="M 494.91524,357.68518 C 485.04302,357.685 471.67993,355.66979 459.67723,357.29807 C 447.67453,358.92635 434.56331,362.61045 428.05454,370.28366 C 417.71158,382.47701 411.83335,402.48639 409.76844,424.30534 C 407.70353,446.12429 408.77343,470.63501 411.14344,493.64909 C 412.30483,504.92679 415.26027,523.15207 415.36988,525.65071 C 433.157,521.85337 428.88399,580.34143 428.88399,580.34143 L 428.97774,580.74768 L 429.35274,580.74768 L 559.66524,580.74768 L 560.07149,580.74768 L 560.16524,580.34143 C 560.16524,580.34143 567.24564,543.58989 570.85274,500.02893 C 574.45984,456.46797 574.62981,406.10358 560.60274,378.62268 C 555.95798,369.52297 544.43809,364.3414 531.66524,361.37268 C 518.89239,358.40396 504.81857,357.68537 494.91524,357.68518 z M 494.91524,358.68518 C 504.76881,358.68537 518.79615,359.40119 531.44649,362.34143 C 544.09683,365.28167 555.3198,370.45568 559.72774,379.09143 C 573.52702,406.12605 573.45477,456.4355 569.85274,499.93518 C 566.28141,543.06418 559.34658,579.12981 559.22774,579.74768 L 429.75899,579.74768 C 429.61631,579.16741 419.95585,539.85663 415.25899,494.24768 C 412.89319,471.27452 411.82883,446.80739 413.88399,425.09143 C 415.93915,403.37547 421.14346,384.42291 431.25899,372.49768 C 437.49729,365.14333 448.42723,361.6425 460.32149,360.02893 C 472.21575,358.41536 485.02565,358.685 494.91524,358.68518 z"
       id="path2388"
       sodipodi:nodetypes="csssscccccccsssccsssccssssc"
       inkscape:export-filename="/home/nemo/path2436.png"
       inkscape:export-xdpi="6.9464927"
       inkscape:export-ydpi="6.9464927"
       transform="matrix(0.3565014,0,0,0.3565014,258.16517,280.05101)" />
    <path
       style="fill:url(#linearGradient3799);fill-opacity:1;stroke:#333333;stroke-width:1.7825067;stroke-miterlimit:4;stroke-dasharray:none"
       d="M 411.77147,412.72996 C 416.31581,407.37262 427.55968,407.73977 434.60479,407.7399 C 441.64816,407.74003 454.63963,408.79172 457.86693,415.11443 C 467.78705,434.54929 457.68687,486.90633 457.68687,486.90633 L 411.23129,486.90633 C 411.23129,486.90633 397.18451,429.92657 411.77147,412.72996 z"
       id="path37"
       sodipodi:nodetypes="cssccs"
       inkscape:export-filename="/home/nemo/path2436.png"
       inkscape:export-xdpi="6.9464927"
       inkscape:export-ydpi="6.9464927" />
    <path
       sodipodi:type="arc"
       style="fill:url(#linearGradient3216);fill-opacity:1;stroke:#333333;stroke-width:5;stroke-miterlimit:4;stroke-dasharray:none"
       id="path2390"
       sodipodi:cx="262.13458"
       sodipodi:cy="283.13101"
       sodipodi:rx="69.19545"
       sodipodi:ry="69.19545"
       d="M 331.33003,283.13101 A 69.19545,69.19545 0 1 1 192.93913,283.13101 A 69.19545,69.19545 0 1 1 331.33003,283.13101 z"
       transform="matrix(0.3565014,0,0,0.3565014,341.00774,285.7747)"
       inkscape:export-filename="/home/nemo/path2436.png"
       inkscape:export-xdpi="6.9464927"
       inkscape:export-ydpi="6.9464927" />
    <path
       style="opacity:0.36160715;fill:#241f1c;fill-opacity:1;stroke:none;stroke-opacity:1;filter:url(#filter3396)"
       d="M 254.85287,229.50612 C 216.38645,229.50612 185.16537,260.7272 185.16537,299.19361 C 185.16537,337.66003 216.38645,368.8811 254.85287,368.88111 C 293.31929,368.88111 326.64867,338.0062 326.64865,299.53978 C 326.64865,261.07337 293.31929,229.50612 254.85287,229.50612 z M 254.85287,230.50612 C 292.77823,230.50612 323.57162,261.26825 323.57162,299.19361 C 323.57164,337.11897 292.77823,367.88111 254.85287,367.88111 C 216.92751,367.8811 186.16537,337.11897 186.16537,299.19361 C 186.16537,261.26825 216.92751,230.50612 254.85287,230.50612 z"
       id="path2430"
       sodipodi:nodetypes="csssccsssc"
       inkscape:export-filename="/home/nemo/path2436.png"
       inkscape:export-xdpi="6.9464927"
       inkscape:export-ydpi="6.9464927"
       transform="matrix(0.3558489,0,0,0.3558489,236.42296,280.4312)" />
    <path
       style="opacity:0.36160715;fill:url(#linearGradient3208);fill-opacity:1;stroke:none;stroke-opacity:1;filter:url(#filter3392)"
       d="M 494.5019,229.49261 C 456.03548,229.49261 422.73737,260.71369 422.73737,299.18011 C 422.73737,337.64653 456.03548,368.86759 494.5019,368.86761 C 532.96832,368.86761 564.22067,337.64653 564.22065,299.18011 C 564.22065,260.71369 532.96832,229.49261 494.5019,229.49261 z M 494.5019,230.49261 C 532.42726,230.49261 563.22065,261.25475 563.22065,299.18011 C 563.22067,337.10547 532.42726,367.86761 494.5019,367.86761 C 456.57654,367.86759 425.8144,337.10547 425.8144,299.18011 C 425.8144,261.25475 456.57654,230.49261 494.5019,230.49261 z"
       id="path2436"
       sodipodi:nodetypes="csssccsssc"
       inkscape:export-xdpi="6.9464927"
       inkscape:export-ydpi="6.9464927"
       transform="matrix(0.3565014,0,0,0.3565014,258.16517,280.05101)" />
    <g
       id="g3655"
       transform="translate(0,-4)">
      <path
         transform="matrix(0.5077028,0,0,0.5005716,209.21301,205.35603)"
         d="M 437.14285,542.36218 A 100,101.42857 0 1 1 237.14285,542.36218 A 100,101.42857 0 1 1 437.14285,542.36218 z"
         sodipodi:ry="101.42857"
         sodipodi:rx="100"
         sodipodi:cy="542.36218"
         sodipodi:cx="337.14285"
         id="path2160"
         style="fill:#24221c;fill-opacity:1;fill-rule:nonzero;stroke:#24221c;stroke-width:1;stroke-linecap:butt;stroke-linejoin:miter;stroke-miterlimit:4;stroke-dasharray:none;stroke-dashoffset:0;stroke-opacity:1;display:inline"
         sodipodi:type="arc" />
      <path
         sodipodi:nodetypes="cssssssc"
         id="path2162"
         d="M 426.80384,476.84715 C 426.80384,501.71767 406.33152,521.90245 381.10669,521.90245 C 368.25472,521.90245 356.12355,517.67405 347.81806,509.24451 C 339.82218,501.12922 335.40952,489.04621 335.40952,476.84715 C 335.40952,463.44637 340.83724,451.21283 350.26551,442.95746 C 358.33519,435.89164 369.47352,431.79182 381.10669,431.79182 C 391.24013,431.79182 400.60664,434.54366 408.187,440.05382 C 419.47617,448.25987 426.80384,461.96774 426.80384,476.84715 z"
         style="fill:url(#radialGradient3706);fill-opacity:1;fill-rule:nonzero;stroke:#24221c;stroke-width:0.49635082;stroke-linecap:butt;stroke-linejoin:miter;stroke-miterlimit:4;stroke-dashoffset:0;stroke-opacity:1;display:inline" />
      <path
         sodipodi:nodetypes="ccsccsc"
         id="path2177"
         d="M 348.22853,490.08457 L 365.22722,502.28753 C 365.22722,502.28753 368.2049,504.26876 367.2238,505.59729 C 366.24273,506.92582 363.0377,506.97057 363.0377,506.97057 L 344.38057,493.57709 C 344.38057,493.57709 344.2688,491.15127 345.24987,489.82273 C 346.23097,488.49421 348.22853,490.08457 348.22853,490.08457 z"
         style="fill:#e3dbdb;fill-opacity:1;fill-rule:nonzero;stroke:#666666;stroke-width:0.50412464;stroke-linecap:butt;stroke-linejoin:miter;stroke-miterlimit:4;stroke-dashoffset:0;stroke-opacity:1;display:inline" />
      <path
         sodipodi:nodetypes="ccsccsc"
         id="path2179"
         d="M 345.27489,475.0522 L 350.51536,454.97459 C 350.51536,454.97459 351.28588,451.5152 352.90008,451.92476 C 354.51426,452.33434 355.73772,455.25539 355.73772,455.25539 L 349.98601,477.29181 C 349.98601,477.29181 347.74001,478.28833 346.12582,477.87877 C 344.51163,477.46921 345.27489,475.0522 345.27489,475.0522 z"
         style="fill:#f2f2f2;fill-opacity:1;fill-rule:nonzero;stroke:#4d4d4d;stroke-width:0.50412464;stroke-linecap:butt;stroke-linejoin:miter;stroke-miterlimit:4;stroke-dashoffset:0;stroke-opacity:1;display:inline" />
      <path
         sodipodi:nodetypes="ccsccsc"
         id="path2185"
         d="M 415.36639,478.907 L 415.72568,499.93108 C 415.72568,499.93108 415.91341,503.51841 414.27027,503.54647 C 412.62715,503.57456 410.68741,501.04305 410.68741,501.04305 L 410.2931,477.96782 C 410.2931,477.96782 412.16272,476.39709 413.80585,476.36901 C 415.449,476.34095 415.36639,478.907 415.36639,478.907 z"
         style="fill:#f9f9f9;fill-opacity:1;fill-rule:nonzero;stroke:#333333;stroke-width:0.50412464;stroke-linecap:butt;stroke-linejoin:miter;stroke-miterlimit:4;stroke-dashoffset:0;stroke-opacity:1;display:inline" />
      <path
         sodipodi:nodetypes="ccsccsc"
         id="path2191"
         d="M 339.01553,463.90294 L 352.52267,463.90294 C 352.52267,463.90294 354.8288,463.77411 354.8288,465.44876 C 354.8288,467.1234 353.18158,469.05567 353.18158,469.05567 L 338.35663,469.05567 C 338.35663,469.05567 337.3683,467.1234 337.3683,465.44876 C 337.3683,463.77411 339.01553,463.90294 339.01553,463.90294 z"
         style="fill:#f2f2f2;fill-opacity:1;fill-rule:nonzero;stroke:#666666;stroke-width:0.40787086;stroke-linecap:butt;stroke-linejoin:miter;stroke-miterlimit:4;stroke-dashoffset:0;stroke-opacity:1;display:inline" />
      <path
         sodipodi:nodetypes="ccsccsc"
         id="path2193"
         d="M 392.92748,506.90823 L 411.79656,497.75965 C 411.79656,497.75965 414.96154,496.08426 415.69706,497.55896 C 416.43259,499.03367 414.98016,501.85094 414.98016,501.85094 L 394.27017,511.89208 C 394.27017,511.89208 392.04084,510.85989 391.30531,509.38517 C 390.56978,507.91045 392.92748,506.90823 392.92748,506.90823 z"
         style="fill:#f9f9f9;fill-opacity:1;fill-rule:nonzero;stroke:#4d4d4d;stroke-width:0.50412464;stroke-linecap:butt;stroke-linejoin:miter;stroke-miterlimit:4;stroke-dashoffset:0;stroke-opacity:1;display:inline" />
      <path
         sodipodi:nodetypes="ccccccccccccc"
         id="rect2166"
         d="M 355.72658,451.41952 L 381.88945,455.62492 L 387.99231,458.76468 L 413.11585,459.85299 L 410.07462,481.47633 L 406.31262,487.38845 L 406.88494,492.9595 L 406.48679,503.70494 L 371.02513,497.99413 L 360.70228,494.37316 L 349.09755,495.27148 L 354.20427,472.17333 L 355.72658,451.41952 z"
         style="fill:url(#linearGradient3708);fill-opacity:1;fill-rule:nonzero;stroke:#24221c;stroke-width:0.34176874;stroke-linecap:butt;stroke-linejoin:miter;stroke-miterlimit:4;stroke-dasharray:none;stroke-dashoffset:0;stroke-opacity:1;display:inline" />
      <path
         inkscape:transform-center-y="3.4463365"
         inkscape:transform-center-x="-0.70722783"
         sodipodi:nodetypes="ccsccsc"
         id="path2215"
         d="M 367.1391,436.26571 L 371.07177,452.74846 C 371.07177,452.74846 371.87554,455.54439 370.15504,455.78113 C 368.43453,456.01785 365.96973,454.28093 365.96973,454.28093 L 361.65338,436.19008 C 361.65338,436.19008 363.35083,434.71087 365.07134,434.47415 C 366.79185,434.23741 367.1391,436.26571 367.1391,436.26571 z"
         style="fill:#f2f2f2;fill-opacity:1;fill-rule:nonzero;stroke:#4d4d4d;stroke-width:0.46412763;stroke-linecap:butt;stroke-linejoin:miter;stroke-miterlimit:4;stroke-dashoffset:0;stroke-opacity:1;display:inline" />
      <path
         sodipodi:nodetypes="ccsccsc"
         id="path2183"
         d="M 385.61414,498.25566 L 391.80948,515.34909 C 391.80948,515.34909 392.99014,518.23545 391.3921,518.65186 C 389.79406,519.06824 387.19464,517.46414 387.19464,517.46414 L 380.39489,498.70305 C 380.39489,498.70305 381.78547,496.97184 383.3835,496.55545 C 384.98154,496.13908 385.61414,498.25566 385.61414,498.25566 z"
         style="fill:#f2f2f2;fill-opacity:1;fill-rule:nonzero;stroke:#4d4d4d;stroke-width:0.46890387;stroke-linecap:butt;stroke-linejoin:miter;stroke-miterlimit:4;stroke-dashoffset:0;stroke-opacity:1;display:inline" />
      <path
         sodipodi:nodetypes="ccsccsc"
         id="path2175"
         d="M 403.15324,451.58322 L 421.64883,461.44541 C 421.64883,461.44541 424.86763,463.018 424.07472,464.46351 C 423.28185,465.90904 420.11139,466.37423 420.11139,466.37423 L 399.81133,455.54992 C 399.81133,455.54992 399.37286,453.16037 400.16576,451.71486 C 400.95866,450.26933 403.15324,451.58322 403.15324,451.58322 z"
         style="fill:#f2f2f2;fill-opacity:1;fill-rule:nonzero;stroke:#666666;stroke-width:0.50412464;stroke-linecap:butt;stroke-linejoin:miter;stroke-miterlimit:4;stroke-dashoffset:0;stroke-opacity:1;display:inline" />
      <path
         sodipodi:nodetypes="ccsccsc"
         id="rect2172"
         d="M 377.17378,445.43302 L 398.20092,445.43302 C 398.20092,445.43302 401.79093,445.30661 401.79093,446.95 C 401.79093,448.59335 399.22666,450.48957 399.22666,450.48957 L 376.14807,450.48957 C 376.14807,450.48957 374.60949,448.59335 374.60949,446.95 C 374.60949,445.30661 377.17378,445.43302 377.17378,445.43302 z"
         style="fill:#f2f2f2;fill-opacity:1;fill-rule:nonzero;stroke:#4d4d4d;stroke-width:0.50412464;stroke-linecap:butt;stroke-linejoin:miter;stroke-miterlimit:4;stroke-dashoffset:0;stroke-opacity:1;display:inline" />
      <path
         sodipodi:nodetypes="ccsccsc"
         id="path2181"
         d="M 357.80041,510.4673 L 377.22551,502.53014 C 377.22551,502.53014 380.49293,501.05824 381.13106,502.5764 C 381.76916,504.09457 380.13658,506.81424 380.13658,506.81424 L 358.81634,515.52577 C 358.81634,515.52577 356.65869,514.3548 356.02055,512.83662 C 355.38243,511.31847 357.80041,510.4673 357.80041,510.4673 z"
         style="fill:#f2f2f2;fill-opacity:1;fill-rule:nonzero;stroke:#4d4d4d;stroke-width:0.50412464;stroke-linecap:butt;stroke-linejoin:miter;stroke-miterlimit:4;stroke-dashoffset:0;stroke-opacity:1;display:inline" />
      <path
         sodipodi:nodetypes="ccsccsc"
         id="path2187"
         d="M 357.25634,444.0499 L 376.63901,436.01253 C 376.63901,436.01253 379.89854,434.52375 380.54473,436.03861 C 381.1909,437.55348 379.57275,440.28154 379.57275,440.28154 L 358.29911,449.10302 C 358.29911,449.10302 356.13526,447.94322 355.48908,446.42838 C 354.84289,444.91353 357.25634,444.0499 357.25634,444.0499 z"
         style="fill:#f2f2f2;fill-opacity:1;fill-rule:nonzero;stroke:#666666;stroke-width:0.50412464;stroke-linecap:butt;stroke-linejoin:miter;stroke-miterlimit:4;stroke-dashoffset:0;stroke-opacity:1;display:inline" />
      <path
         sodipodi:nodetypes="ccsccsc"
         id="path2189"
         d="M 386.27076,434.31216 L 396.5878,452.37691 C 396.5878,452.37691 398.46097,455.39911 397.00863,456.20542 C 395.55626,457.01176 392.62228,455.73913 392.62228,455.73913 L 381.29868,435.91196 C 381.29868,435.91196 382.21959,433.65977 383.67194,432.85344 C 385.1243,432.04711 386.27076,434.31216 386.27076,434.31216 z"
         style="fill:#f2f2f2;fill-opacity:1;fill-rule:nonzero;stroke:#4d4d4d;stroke-width:0.50412464;stroke-linecap:butt;stroke-linejoin:miter;stroke-miterlimit:4;stroke-dashoffset:0;stroke-opacity:1;display:inline" />
      <path
         sodipodi:nodetypes="ccsccsc"
         id="path2209"
         d="M 399.42262,437.55888 L 415.93087,450.39969 C 415.93087,450.39969 418.82877,452.49277 417.7964,453.78297 C 416.76403,455.07319 413.55964,454.99593 413.55964,454.99593 L 395.44082,440.90235 C 395.44082,440.90235 395.42408,438.47407 396.45644,437.18387 C 397.48881,435.89366 399.42262,437.55888 399.42262,437.55888 z"
         style="fill:#f2f2f2;fill-opacity:1;fill-rule:nonzero;stroke:#666666;stroke-width:0.50412464;stroke-linecap:butt;stroke-linejoin:miter;stroke-miterlimit:4;stroke-dashoffset:0;stroke-opacity:1;display:inline" />
      <path
         sodipodi:nodetypes="ccsccsc"
         id="path2211"
         d="M 340.99883,455.88245 L 355.06904,440.476 C 355.06904,440.476 357.37597,437.76102 358.61463,438.86069 C 359.85327,439.96032 359.56659,443.108 359.56659,443.108 L 344.12368,460.01754 C 344.12368,460.01754 341.66495,459.87602 340.42632,458.77635 C 339.18767,457.6767 340.99883,455.88245 340.99883,455.88245 z"
         style="fill:#f2f2f2;fill-opacity:1;fill-rule:nonzero;stroke:#4d4d4d;stroke-width:0.50412464;stroke-linecap:butt;stroke-linejoin:miter;stroke-miterlimit:4;stroke-dashoffset:0;stroke-opacity:1;display:inline" />
      <path
         sodipodi:nodetypes="ccsccsc"
         id="path2213"
         d="M 362.03904,509.34031 L 382.36417,514.65258 C 382.36417,514.65258 385.86715,515.43735 385.44006,517.02587 C 385.01296,518.61437 382.0415,519.79943 382.0415,519.79943 L 359.73343,513.96891 C 359.73343,513.96891 358.73902,511.74731 359.16611,510.15881 C 359.5932,508.57029 362.03904,509.34031 362.03904,509.34031 z"
         style="fill:#f9f9f9;fill-opacity:1;fill-rule:nonzero;stroke:#4d4d4d;stroke-width:0.50412464;stroke-linecap:butt;stroke-linejoin:miter;stroke-miterlimit:4;stroke-dashoffset:0;stroke-opacity:1;display:inline" />
      <path
         sodipodi:nodetypes="ccsccsc"
         id="path2217"
         d="M 348.569,503.13531 L 367.9941,495.19815 C 367.9941,495.19815 371.2615,493.72625 371.89961,495.24444 C 372.53775,496.7626 370.90513,499.48224 370.90513,499.48224 L 349.58492,508.19377 C 349.58492,508.19377 347.42724,507.02282 346.78913,505.50467 C 346.15099,503.98649 348.569,503.13531 348.569,503.13531 z"
         style="fill:#ececec;fill-opacity:1;fill-rule:nonzero;stroke:#666666;stroke-width:0.50412464;stroke-linecap:butt;stroke-linejoin:miter;stroke-miterlimit:4;stroke-dashoffset:0;stroke-opacity:1;display:inline" />
      <path
         sodipodi:nodetypes="ccsccsc"
         id="path3247"
         d="M 371.89689,439.53622 L 389.11168,451.41316 C 389.11168,451.41316 392.12438,453.33731 391.16739,454.68437 C 390.21041,456.03144 387.00681,456.13733 387.00681,456.13733 L 368.11256,443.10167 C 368.11256,443.10167 367.95718,440.67832 368.91416,439.33126 C 369.87117,437.98421 371.89689,439.53622 371.89689,439.53622 z"
         style="fill:#f2f2f2;fill-opacity:1;fill-rule:nonzero;stroke:#666666;stroke-width:0.50412464;stroke-linecap:butt;stroke-linejoin:miter;stroke-miterlimit:4;stroke-dashoffset:0;stroke-opacity:1;display:inline" />
      <path
         sodipodi:nodetypes="ccsccsc"
         id="path3249"
         d="M 391.2445,439.53544 L 373.0182,449.79275 C 373.0182,449.79275 369.96722,451.65559 369.17669,450.20456 C 368.38617,448.75356 369.69677,445.8284 369.69677,445.8284 L 389.70123,434.5704 C 389.70123,434.5704 391.94699,435.49411 392.7375,436.94515 C 393.52802,438.3962 391.2445,439.53544 391.2445,439.53544 z"
         style="fill:#f2f2f2;fill-opacity:1;fill-rule:nonzero;stroke:#666666;stroke-width:0.50412464;stroke-linecap:butt;stroke-linejoin:miter;stroke-miterlimit:4;stroke-dashoffset:0;stroke-opacity:1;display:inline" />
      <path
         sodipodi:nodetypes="ccsccsc"
         id="path3251"
         d="M 417.61481,470.19278 L 422.49171,486.5882 C 422.49171,486.5882 423.41238,489.31402 422.26794,490.26826 C 421.12349,491.2225 419.20824,490.32411 419.20824,490.32411 L 413.85554,472.32912 C 413.85554,472.32912 414.81921,470.02842 415.96366,469.07416 C 417.1081,468.11992 417.61481,470.19278 417.61481,470.19278 z"
         style="fill:#f2f2f2;fill-opacity:1;fill-rule:nonzero;stroke:#4d4d4d;stroke-width:0.41500074;stroke-linecap:butt;stroke-linejoin:miter;stroke-miterlimit:4;stroke-dashoffset:0;stroke-opacity:1;display:inline" />
      <path
         sodipodi:nodetypes="ccsccsc"
         id="path3253"
         d="M 343.58838,465.88586 L 344.73503,479.34428 C 344.73503,479.34428 345.05915,481.63111 343.39054,481.77328 C 341.72195,481.91543 339.65681,480.4382 339.65681,480.4382 L 338.39828,465.66679 C 338.39828,465.66679 340.23971,464.51797 341.90829,464.37583 C 343.57691,464.23366 343.58838,465.88586 343.58838,465.88586 z"
         style="fill:#f2f2f2;fill-opacity:1;fill-rule:nonzero;stroke:#666666;stroke-width:0.40787086;stroke-linecap:butt;stroke-linejoin:miter;stroke-miterlimit:4;stroke-dashoffset:0;stroke-opacity:1;display:inline" />
      <path
         inkscape:transform-center-y="1.8407239"
         inkscape:transform-center-x="-8.7945911"
         sodipodi:nodetypes="ccsccsc"
         id="path3255"
         d="M 360.09409,504.48473 L 341.58705,494.59421 C 341.58705,494.59421 338.36875,493.0179 339.13038,491.55777 C 339.89198,490.09765 343.02776,489.61905 343.02776,489.61905 L 363.34038,500.47452 C 363.34038,500.47452 363.81573,502.88298 363.05409,504.34307 C 362.29248,505.8032 360.09409,504.48473 360.09409,504.48473 z"
         style="fill:#ececec;fill-opacity:1;fill-rule:nonzero;stroke:#666666;stroke-width:0.50412464;stroke-linecap:butt;stroke-linejoin:miter;stroke-miterlimit:4;stroke-dashoffset:0;stroke-opacity:1;display:inline" />
      <path
         sodipodi:nodetypes="ccsccsc"
         id="path6040"
         d="M 395.07111,516.03021 L 377.11855,513.15395 C 377.11855,513.15395 374.02183,512.78593 374.43309,511.18656 C 374.84434,509.5872 377.50818,508.0925 377.50818,508.0925 L 397.21223,511.24936 C 397.21223,511.24936 398.05133,513.30524 397.64007,514.90462 C 397.22883,516.504 395.07111,516.03021 395.07111,516.03021 z"
         style="fill:#f2f2f2;fill-opacity:1;fill-rule:nonzero;stroke:#4d4d4d;stroke-width:0.46890387;stroke-linecap:butt;stroke-linejoin:miter;stroke-miterlimit:4;stroke-dashoffset:0;stroke-opacity:1;display:inline" />
      <path
         sodipodi:nodetypes="cssc"
         id="path6352"
         d="M 406.42738,500.32903 C 406.42738,500.32903 381.47444,497.42104 371.13981,494.54416 C 367.98863,493.66698 364.24966,490.98963 361.01633,490.49478 C 357.66126,489.9813 349.73588,491.36251 349.73588,491.36251"
         style="opacity:0.47892719;fill:none;fill-opacity:0.83057849;fill-rule:evenodd;stroke:#ececec;stroke-width:0.80987859px;stroke-linecap:butt;stroke-linejoin:miter;stroke-opacity:1;display:inline" />
      <path
         sodipodi:nodetypes="cssc"
         id="path6350"
         d="M 406.28275,495.70113 C 406.28275,495.70113 381.42007,492.94737 371.13981,490.06092 C 368.16113,489.22459 364.65501,486.61122 361.59481,486.15615 C 358.36225,485.67543 350.74821,487.16851 350.74821,487.16851"
         style="opacity:0.47892719;fill:none;fill-opacity:0.83057849;fill-rule:evenodd;stroke:#ececec;stroke-width:0.80987859px;stroke-linecap:butt;stroke-linejoin:miter;stroke-opacity:1;display:inline" />
      <path
         sodipodi:nodetypes="cssc"
         id="path6348"
         d="M 406.42738,490.78402 C 406.42738,490.78402 381.89619,488.62663 371.86292,485.57766 C 368.65036,484.60141 365.05706,481.32174 361.73942,480.80516 C 358.79886,480.34728 351.90519,482.10675 351.90519,482.10675"
         style="opacity:0.47892719;fill:none;fill-opacity:0.83057849;fill-rule:evenodd;stroke:#ececec;stroke-width:0.80987859px;stroke-linecap:butt;stroke-linejoin:miter;stroke-opacity:1;display:inline" />
      <path
         sodipodi:nodetypes="cssc"
         id="path6346"
         d="M 406.71662,486.15615 C 406.71662,486.15615 381.91619,484.22103 371.86292,480.9498 C 368.65201,479.90499 365.20409,476.35895 361.88404,475.74344 C 359.26477,475.2578 353.06216,476.75577 353.06216,476.75577"
         style="opacity:0.47892719;fill:none;fill-opacity:0.83057849;fill-rule:evenodd;stroke:#ececec;stroke-width:0.80987859px;stroke-linecap:butt;stroke-linejoin:miter;stroke-opacity:1;display:inline" />
      <path
         sodipodi:nodetypes="cssc"
         id="path6344"
         d="M 410.18753,481.38363 C 410.18753,481.38363 383.31976,480.10893 372.58601,476.3219 C 369.18987,475.12368 365.8465,470.82335 362.3179,470.1032 C 359.91319,469.61241 354.21913,471.26016 354.21913,471.26016"
         style="opacity:0.47892719;fill:none;fill-opacity:0.83057849;fill-rule:evenodd;stroke:#ececec;stroke-width:0.80987859px;stroke-linecap:butt;stroke-linejoin:miter;stroke-opacity:1;display:inline" />
      <path
         sodipodi:nodetypes="cssc"
         id="path6342"
         d="M 410.62141,476.46652 C 410.62141,476.46652 383.83849,474.9775 373.16452,471.11554 C 369.66584,469.84968 366.24375,465.39379 362.60715,464.6076 C 360.25596,464.09928 354.65298,465.61993 354.65298,465.61993"
         style="opacity:0.47892719;fill:none;fill-opacity:0.83057849;fill-rule:evenodd;stroke:#ececec;stroke-width:0.80987859px;stroke-linecap:butt;stroke-linejoin:miter;stroke-opacity:1;display:inline" />
      <path
         sodipodi:nodetypes="cssc"
         id="path6340"
         d="M 411.34449,470.53705 C 411.34449,470.53705 384.2347,469.48152 373.30912,465.90917 C 370.18891,464.88897 366.96661,461.2798 363.76411,460.5582 C 361.26121,459.99422 355.23148,461.13667 355.23148,461.13667"
         style="opacity:0.47892719;fill:none;fill-opacity:0.83057849;fill-rule:evenodd;stroke:#ececec;stroke-width:0.80987859px;stroke-linecap:butt;stroke-linejoin:miter;stroke-opacity:1;display:inline" />
      <path
         sodipodi:nodetypes="cssc"
         id="path6313"
         d="M 412.06761,464.75222 C 412.06761,464.75222 384.49675,464.80017 373.45373,461.13667 C 370.36749,460.11282 367.36249,456.24431 364.19799,455.49646 C 361.65581,454.89567 355.52072,456.21956 355.52072,456.21956"
         style="opacity:0.47892719;fill:none;fill-opacity:0.83057849;fill-rule:evenodd;stroke:#ececec;stroke-width:0.80987859px;stroke-linecap:butt;stroke-linejoin:miter;stroke-opacity:1;display:inline" />
      <path
         sodipodi:nodetypes="ccsccsc"
         id="path6042"
         d="M 350.40531,476.02085 L 346.64056,493.80832 C 346.64056,493.80832 346.11911,496.88291 344.54214,496.39269 C 342.9652,495.90249 341.60472,493.16764 341.60472,493.16764 L 345.73677,473.64482 C 345.73677,473.64482 347.83181,472.90892 349.40875,473.39913 C 350.98573,473.88934 350.40531,476.02085 350.40531,476.02085 z"
         style="fill:#f2f2f2;fill-opacity:1;fill-rule:nonzero;stroke:#4d4d4d;stroke-width:0.46890387;stroke-linecap:butt;stroke-linejoin:miter;stroke-miterlimit:4;stroke-dashoffset:0;stroke-opacity:1;display:inline" />
      <path
         sodipodi:nodetypes="ccsccsc"
         id="path6044"
         d="M 409.53976,448.96593 L 388.73701,446.80833 C 388.73701,446.80833 385.17048,446.56618 385.36354,444.92511 C 385.55659,443.28402 388.3163,441.6536 388.3163,441.6536 L 411.14857,444.02171 C 411.14857,444.02171 412.44795,446.07312 412.25489,447.71421 C 412.06184,449.35529 409.53976,448.96593 409.53976,448.96593 z"
         style="fill:#f2f2f2;fill-opacity:1;fill-rule:nonzero;stroke:#666666;stroke-width:0.50412464;stroke-linecap:butt;stroke-linejoin:miter;stroke-miterlimit:4;stroke-dashoffset:0;stroke-opacity:1;display:inline" />
      <path
         sodipodi:nodetypes="ccsccsc"
         id="path6046"
         d="M 426.55295,470.38577 L 420.10166,490.35359 C 420.10166,490.35359 419.12113,493.80046 417.54908,493.30988 C 415.97703,492.81929 414.94985,489.81812 414.94985,489.81812 L 422.03056,467.90223 C 422.03056,467.90223 424.31651,467.00723 425.88858,467.49783 C 427.46063,467.9884 426.55295,470.38577 426.55295,470.38577 z"
         style="fill:#f2f2f2;fill-opacity:1;fill-rule:nonzero;stroke:#4d4d4d;stroke-width:0.50412464;stroke-linecap:butt;stroke-linejoin:miter;stroke-miterlimit:4;stroke-dashoffset:0;stroke-opacity:1;display:inline" />
      <path
         sodipodi:nodetypes="ccsccsc"
         id="path2195"
         d="M 407.69695,480.14627 L 421.88985,471.49516 C 421.88985,471.49516 424.27352,469.9026 424.78715,471.40464 C 425.30078,472.9067 424.16261,475.69485 424.16261,475.69485 L 408.58504,485.19 C 408.58504,485.19 406.95386,484.08985 406.44023,482.58779 C 405.9266,481.08572 407.69695,480.14627 407.69695,480.14627 z"
         style="fill:#f9f9f9;fill-opacity:1;fill-rule:nonzero;stroke:#4d4d4d;stroke-width:0.43528146;stroke-linecap:butt;stroke-linejoin:miter;stroke-miterlimit:4;stroke-dashoffset:0;stroke-opacity:1;display:inline" />
      <path
         sodipodi:nodetypes="ccsccsc"
         id="path2197"
         d="M 338.32836,479.63763 L 352.1332,479.63763 C 352.1332,479.63763 354.49014,479.50896 354.49014,481.18199 C 354.49014,482.85505 352.80662,484.78545 352.80662,484.78545 L 337.65495,484.78545 C 337.65495,484.78545 336.64483,482.85505 336.64483,481.18199 C 336.64483,479.50896 338.32836,479.63763 338.32836,479.63763 z"
         style="fill:#f2f2f2;fill-opacity:1;fill-rule:nonzero;stroke:#666666;stroke-width:0.41214409;stroke-linecap:butt;stroke-linejoin:miter;stroke-miterlimit:4;stroke-dashoffset:0;stroke-opacity:1;display:inline" />
      <path
         sodipodi:nodetypes="ccsccsc"
         id="path3633"
         d="M 379.25769,436.8453 L 361.0314,447.10258 C 361.0314,447.10258 357.98042,448.96543 357.18988,447.51441 C 356.39936,446.0634 357.70996,443.13824 357.70996,443.13824 L 377.71443,431.88024 C 377.71443,431.88024 379.96019,432.80395 380.7507,434.25499 C 381.54122,435.70604 379.25769,436.8453 379.25769,436.8453 z"
         style="fill:#f2f2f2;fill-opacity:1;fill-rule:nonzero;stroke:#666666;stroke-width:0.50412464;stroke-linecap:butt;stroke-linejoin:miter;stroke-miterlimit:4;stroke-dashoffset:0;stroke-opacity:1;display:inline" />
      <path
         sodipodi:nodetypes="ccsccsc"
         id="path3635"
         d="M 401.74301,442.50684 L 380.94027,440.34921 C 380.94027,440.34921 377.37372,440.10707 377.56679,438.46601 C 377.75983,436.82492 380.51955,435.1945 380.51955,435.1945 L 403.35183,437.5626 C 403.35183,437.5626 404.6512,439.61402 404.45815,441.25511 C 404.26509,442.89619 401.74301,442.50684 401.74301,442.50684 z"
         style="fill:#f2f2f2;fill-opacity:1;fill-rule:nonzero;stroke:#666666;stroke-width:0.50412464;stroke-linecap:butt;stroke-linejoin:miter;stroke-miterlimit:4;stroke-dashoffset:0;stroke-opacity:1;display:inline" />
      <path
         sodipodi:nodetypes="ccsccsc"
         id="path3637"
         d="M 405.2323,444.53055 L 421.74054,457.37137 C 421.74054,457.37137 424.63844,459.46444 423.60608,460.75466 C 422.57371,462.04487 419.36931,461.9676 419.36931,461.9676 L 401.25048,447.87401 C 401.25048,447.87401 401.23375,445.44576 402.26612,444.15554 C 403.29849,442.86534 405.2323,444.53055 405.2323,444.53055 z"
         style="fill:#f2f2f2;fill-opacity:1;fill-rule:nonzero;stroke:#666666;stroke-width:0.50412464;stroke-linecap:butt;stroke-linejoin:miter;stroke-miterlimit:4;stroke-dashoffset:0;stroke-opacity:1;display:inline" />
      <path
         sodipodi:nodetypes="ccsccsc"
         id="path3639"
         d="M 417.36687,465.7964 L 417.72616,486.82049 C 417.72616,486.82049 417.9139,490.40782 416.27077,490.43588 C 414.62764,490.46397 412.6879,487.93245 412.6879,487.93245 L 412.29358,464.85725 C 412.29358,464.85725 414.16322,463.28651 415.80633,463.25843 C 417.44949,463.23036 417.36687,465.7964 417.36687,465.7964 z"
         style="fill:#f9f9f9;fill-opacity:1;fill-rule:nonzero;stroke:#333333;stroke-width:0.50412464;stroke-linecap:butt;stroke-linejoin:miter;stroke-miterlimit:4;stroke-dashoffset:0;stroke-opacity:1;display:inline" />
      <path
         sodipodi:nodetypes="ccsccsc"
         id="path3641"
         d="M 375.78237,509.37116 L 394.65145,500.22258 C 394.65145,500.22258 397.81643,498.54718 398.55195,500.0219 C 399.28748,501.49659 397.83505,504.31387 397.83505,504.31387 L 377.12507,514.35501 C 377.12507,514.35501 374.89573,513.32281 374.1602,511.8481 C 373.42468,510.37337 375.78237,509.37116 375.78237,509.37116 z"
         style="fill:#f9f9f9;fill-opacity:1;fill-rule:nonzero;stroke:#4d4d4d;stroke-width:0.50412464;stroke-linecap:butt;stroke-linejoin:miter;stroke-miterlimit:4;stroke-dashoffset:0;stroke-opacity:1;display:inline" />
      <path
         inkscape:transform-center-y="1.8407222"
         inkscape:transform-center-x="-8.7945841"
         sodipodi:nodetypes="ccsccsc"
         id="path3643"
         d="M 378.27022,508.39044 L 359.76318,498.49992 C 359.76318,498.49992 356.54489,496.92361 357.3065,495.46348 C 358.06814,494.00337 361.20389,493.52477 361.20389,493.52477 L 381.51651,504.38025 C 381.51651,504.38025 381.99186,506.78869 381.23023,508.24879 C 380.46861,509.70891 378.27022,508.39044 378.27022,508.39044 z"
         style="fill:#ececec;fill-opacity:1;fill-rule:nonzero;stroke:#666666;stroke-width:0.50412464;stroke-linecap:butt;stroke-linejoin:miter;stroke-miterlimit:4;stroke-dashoffset:0;stroke-opacity:1;display:inline" />
      <path
         sodipodi:nodetypes="ccsccsc"
         id="path3645"
         d="M 353.63164,454.95456 L 349.86691,472.74204 C 349.86691,472.74204 349.34545,475.81663 347.76848,475.32642 C 346.19153,474.83619 344.83105,472.10136 344.83105,472.10136 L 348.96312,452.57853 C 348.96312,452.57853 351.05814,451.84264 352.63509,452.33285 C 354.21207,452.82306 353.63164,454.95456 353.63164,454.95456 z"
         style="fill:#f2f2f2;fill-opacity:1;fill-rule:nonzero;stroke:#4d4d4d;stroke-width:0.46890387;stroke-linecap:butt;stroke-linejoin:miter;stroke-miterlimit:4;stroke-dashoffset:0;stroke-opacity:1;display:inline" />
      <path
         sodipodi:nodetypes="ccsccsc"
         id="path3647"
         d="M 348.33087,456.72149 L 344.56613,474.50896 C 344.56613,474.50896 344.04467,477.58355 342.46771,477.09333 C 340.89075,476.60313 339.53028,473.86828 339.53028,473.86828 L 343.66234,454.34544 C 343.66234,454.34544 345.75737,453.60956 347.33434,454.09978 C 348.91129,454.58998 348.33087,456.72149 348.33087,456.72149 z"
         style="fill:#f2f2f2;fill-opacity:1;fill-rule:nonzero;stroke:#4d4d4d;stroke-width:0.46890387;stroke-linecap:butt;stroke-linejoin:miter;stroke-miterlimit:4;stroke-dashoffset:0;stroke-opacity:1;display:inline" />
      <path
         sodipodi:nodetypes="ccsccsc"
         id="path3649"
         d="M 351.77656,502.45538 L 372.10171,507.76764 C 372.10171,507.76764 375.60469,508.5524 375.17759,510.14093 C 374.75049,511.72943 371.77903,512.9145 371.77903,512.9145 L 349.47097,507.08397 C 349.47097,507.08397 348.47655,504.86237 348.90364,503.27387 C 349.33074,501.68535 351.77656,502.45538 351.77656,502.45538 z"
         style="fill:#f9f9f9;fill-opacity:1;fill-rule:nonzero;stroke:#4d4d4d;stroke-width:0.50412464;stroke-linecap:butt;stroke-linejoin:miter;stroke-miterlimit:4;stroke-dashoffset:0;stroke-opacity:1;display:inline" />
      <path
         sodipodi:nodetypes="ccsccsc"
         id="path3651"
         d="M 390.27114,507.60422 L 409.14022,498.45563 C 409.14022,498.45563 412.30521,496.78024 413.04073,498.25496 C 413.77626,499.72966 412.32383,502.54693 412.32383,502.54693 L 391.61384,512.58806 C 391.61384,512.58806 389.38451,511.55587 388.64898,510.08116 C 387.91344,508.60645 390.27114,507.60422 390.27114,507.60422 z"
         style="fill:#f9f9f9;fill-opacity:1;fill-rule:nonzero;stroke:#4d4d4d;stroke-width:0.50412464;stroke-linecap:butt;stroke-linejoin:miter;stroke-miterlimit:4;stroke-dashoffset:0;stroke-opacity:1;display:inline" />
      <path
         sodipodi:nodetypes="ccsccsc"
         id="path3653"
         d="M 352.30188,451.45453 L 366.49477,442.8034 C 366.49477,442.8034 368.87845,441.21084 369.39208,442.7129 C 369.90571,444.21495 368.76754,447.00311 368.76754,447.00311 L 353.18994,456.49824 C 353.18994,456.49824 351.55878,455.39811 351.04516,453.89605 C 350.53153,452.39398 352.30188,451.45453 352.30188,451.45453 z"
         style="fill:#f9f9f9;fill-opacity:1;fill-rule:nonzero;stroke:#4d4d4d;stroke-width:0.43528146;stroke-linecap:butt;stroke-linejoin:miter;stroke-miterlimit:4;stroke-dashoffset:0;stroke-opacity:1;display:inline" />
    </g>
  </g>
</svg>
