<?xml version="1.0" encoding="UTF-8" standalone="no"?>
<!-- Created with Inkscape (http://www.inkscape.org/) -->
<svg
   xmlns:dc="http://purl.org/dc/elements/1.1/"
   xmlns:cc="http://creativecommons.org/ns#"
   xmlns:rdf="http://www.w3.org/1999/02/22-rdf-syntax-ns#"
   xmlns:svg="http://www.w3.org/2000/svg"
   xmlns="http://www.w3.org/2000/svg"
   xmlns:xlink="http://www.w3.org/1999/xlink"
   xmlns:sodipodi="http://sodipodi.sourceforge.net/DTD/sodipodi-0.dtd"
   xmlns:inkscape="http://www.inkscape.org/namespaces/inkscape"
   width="295"
   height="295"
   id="svg2"
   sodipodi:version="0.32"
   inkscape:version="0.46"
   sodipodi:docname="icon.svg"
   inkscape:output_extension="org.inkscape.output.svg.inkscape"
   version="1.0">
  <defs
     id="defs4">
    <inkscape:perspective
       id="perspective2430"
       inkscape:persp3d-origin="264.9341 : 1127.1309 : 1"
       inkscape:vp_z="-402.09036 : 86.63388 : 0"
       inkscape:vp_y="6.9812603 : -999.97563 : 0"
       inkscape:vp_x="636.98132 : 951.73728 : 1"
       sodipodi:type="inkscape:persp3d" />
    <linearGradient
       inkscape:collect="always"
       id="linearGradient2444">
      <stop
         style="stop-color:#483737;stop-opacity:1;"
         offset="0"
         id="stop2446" />
      <stop
         style="stop-color:#2b1100;stop-opacity:1"
         offset="1"
         id="stop2448" />
    </linearGradient>
    <inkscape:perspective
       sodipodi:type="inkscape:persp3d"
       inkscape:vp_x="837.16046 : 477.72037 : 1"
       inkscape:vp_y="6.9812603 : -999.97563 : 0"
       inkscape:vp_z="-402.09036 : 86.63388 : 0"
       inkscape:persp3d-origin="465.11324 : 653.11402 : 1"
       id="perspective10" />
    <linearGradient
       inkscape:collect="always"
       xlink:href="#linearGradient2444"
       id="linearGradient2450"
       x1="446.98883"
       y1="531.55786"
       x2="517.12927"
       y2="534.55786"
       gradientUnits="userSpaceOnUse"
       gradientTransform="translate(-80.85138,-60.464566)" />
  </defs>
  <sodipodi:namedview
     id="base"
     pagecolor="#ffffff"
     bordercolor="#666666"
     borderopacity="1.0"
     gridtolerance="10000"
     guidetolerance="10"
     objecttolerance="10"
     inkscape:pageopacity="0.0"
     inkscape:pageshadow="2"
     inkscape:zoom="0.70710679"
     inkscape:cx="222.55461"
     inkscape:cy="312.64669"
     inkscape:document-units="px"
     inkscape:current-layer="layer1"
     showgrid="false"
     inkscape:window-width="768"
     inkscape:window-height="950"
     inkscape:window-x="464"
     inkscape:window-y="73"
     showguides="true">
    <inkscape:grid
       type="xygrid"
       id="grid2452"
       visible="true"
       enabled="true" />
  </sodipodi:namedview>
  <metadata
     id="metadata7">
    <rdf:RDF>
      <cc:Work
         rdf:about="">
        <dc:format>image/svg+xml</dc:format>
        <dc:type
           rdf:resource="http://purl.org/dc/dcmitype/StillImage" />
      </cc:Work>
    </rdf:RDF>
  </metadata>
  <g
     inkscape:label="Layer 1"
     inkscape:groupmode="layer"
     id="layer1"
     transform="translate(-186.48372,-285.72768)">
    <path
       style="fill:url(#linearGradient2450);fill-opacity:1;stroke:#000000;stroke-width:2.5;stroke-miterlimit:4;stroke-opacity:1"
       d="M 459.94586,418.94487 C 459.94586,460.48348 459.6219,505.47814 446.27451,521.4853 C 424.54989,547.53905 401.95893,576.7992 380.28787,576.7992 C 340.94079,576.7992 253.53725,566.59253 223.18347,543.661 C 199.9027,526.07296 209.84242,451.69856 209.84242,421.78439 C 209.84242,388.78287 208.51005,341.31774 231.35778,330.75583 C 247.96778,323.07745 276.44934,303.01483 295.92157,297.85607 C 311.85694,293.63432 342.29429,300.77891 358.36366,303.47735 C 393.1796,309.32381 417.38623,311.81682 441.43124,321.13074 C 469.92386,332.16746 459.94586,386.01439 459.94586,418.94487 z"
       id="path2389"
       sodipodi:nodetypes="cssssssssc" />
    <path
       style="opacity:1;fill:#f4e3d7;fill-opacity:1;stroke:#000000;stroke-width:2.5;stroke-miterlimit:4;stroke-opacity:1"
       d="M 454.81709,332.6178 C 451.00178,337.35093 432.46022,353.4164 422.16743,360.5023 C 413.10147,366.74362 399.94387,383.00001 381.3125,383 C 373.93242,383 318.00016,371.99892 314.80205,371.99893 C 306.90773,371.99893 227.09865,354.01595 219.17422,344.47707 C 222.01206,337.83365 225.19859,333.82129 231.03125,331.125 C 247.64126,323.44661 276.12152,303.37751 295.59375,298.21875 C 298.58163,297.42717 302.089,297.03411 305.90625,296.9375 C 322.44766,296.51884 344.97489,301.65127 358.03125,303.84375 C 392.8472,309.69022 429.13902,313.68201 443.2223,322.49851 C 449.68938,326.54707 452.0867,327.87502 454.81709,332.6178 z"
       id="path2404"
       sodipodi:nodetypes="cssscsscssc" />
    <path
       style="opacity:1;fill:#f4e3d7;fill-opacity:1;stroke:#666666;stroke-width:2.5;stroke-miterlimit:4;stroke-dasharray:none;stroke-opacity:1"
       d="M 225.1061,346.60743 C 225.1061,346.60743 225.1061,346.60743 225.1061,346.60743 C 221.9773,344.02641 215.55663,340.69343 215.55663,335.81238 C 215.55663,330.20211 221.44382,325.68457 226.79662,327.46883 C 229.96864,328.52617 233.72174,331.02563 235.5157,333.71657"
       id="path3322"
       sodipodi:nodetypes="ccsss" />
    <path
       style="opacity:1;fill:#f4e3d7;fill-opacity:1;stroke:#666666;stroke-width:2.5;stroke-miterlimit:4;stroke-dasharray:none;stroke-opacity:1"
       d="M 236.73155,334.98199 C 236.89296,335.22411 235.87568,333.27026 235.07077,331.66043 C 233.93738,329.39365 235.00773,320.23445 237.12691,319.17486 C 239.61533,317.93065 241.76579,315.98553 244.82289,317.51408 C 249.68069,319.94298 249.81395,323.12298 252.5486,325.85762"
       id="path3324"
       sodipodi:nodetypes="cssss" />
    <path
       style="opacity:1;fill:#f4e3d7;fill-opacity:1;stroke:#666666;stroke-width:2.5;stroke-miterlimit:4;stroke-dasharray:none;stroke-opacity:1"
       d="M 253.11687,325.2497 C 250.70462,321.56212 247.83574,316.53457 248.86579,314.47447 C 249.54786,313.11032 251.55441,307.96461 256.23578,307.75205 C 261.53618,307.51139 260.84176,306.69837 264.57933,310.43594 C 265.88166,311.73828 267.52533,313.33156 268.37555,317.05923"
       id="path3326"
       sodipodi:nodetypes="cssss" />
    <path
       style="opacity:1;fill:#f4e3d7;fill-opacity:1;stroke:#666666;stroke-width:2.5;stroke-miterlimit:4;stroke-dasharray:none;stroke-opacity:1"
       d="M 267.87114,315.05265 C 267.87114,315.05265 267.87114,315.05265 267.87114,315.05265 C 265.6497,310.90258 265.45649,303.80414 270.36231,301.35123 C 272.45345,300.30566 275.05749,298.09804 278.70639,300.64584 C 281.34885,302.49091 282.76405,306.527 283.05053,307.38642 C 283.21561,307.88166 281.63215,304.48556 281.39853,302.88259 C 280.80608,298.81749 283.16005,296.55394 286.38087,293.33312 C 290.82725,288.88674 297.76515,291.6753 297.76515,298.02967 C 297.76515,298.1286 299.91898,305.16007 299.91898,302.57457"
       id="path3328"
       sodipodi:nodetypes="ccssssssc" />
    <path
       style="opacity:1;fill:#f4e3d7;fill-opacity:1;stroke:#666666;stroke-width:2.5;stroke-miterlimit:4;stroke-dasharray:none;stroke-opacity:1"
       d="M 299.83121,304.89525 C 299.4061,303.23245 299.01073,301.8338 299.01073,300.52084 C 299.01073,295.27862 300.99705,292.24683 306.06904,290.55617 C 310.04248,289.23169 312.29696,295.83421 312.29696,298.44487 C 312.29696,299.91501 312.29696,300.86908 312.29696,302.18162"
       id="path3330"
       sodipodi:nodetypes="csssc" />
    <path
       style="opacity:1;fill:#f4e3d7;fill-opacity:1;stroke:#666666;stroke-width:2.5;stroke-miterlimit:4;stroke-dasharray:none;stroke-opacity:1"
       d="M 312.36075,302.23511 C 311.33014,296.85585 315.88733,290.98381 320.96648,289.29076 C 327.1975,287.21375 330.82784,295.98932 330.82784,300.34624"
       id="path3332"
       sodipodi:nodetypes="css" />
    <path
       style="opacity:1;fill:#f4e3d7;fill-opacity:1;stroke:#666666;stroke-width:2.5;stroke-miterlimit:4;stroke-dasharray:none;stroke-opacity:1"
       d="M 330.50241,300.51721 C 330.36402,300.37881 330.58283,297.60531 331.58083,296.60731 C 333.10452,295.08362 333.01958,294.51907 335.96305,293.04734 C 340.93804,290.55984 344.86596,292.9998 347.1733,297.61448 C 347.83685,298.94159 349.12018,302.73629 349.38531,304.76919"
       id="path3334"
       sodipodi:nodetypes="csssc" />
    <path
       style="opacity:1;fill:#f4e3d7;fill-opacity:1;stroke:#666666;stroke-width:2.5;stroke-miterlimit:4;stroke-dasharray:none;stroke-opacity:1"
       d="M 349.24927,304.25759 C 349.24927,304.25759 349.24927,304.25759 349.24927,304.25759 C 349.72314,298.44935 355.1941,294.29292 360.87472,294.29292 C 365.81326,294.29292 360.75176,303.96535 359.21394,305.50318 C 358.93714,305.77997 358.66035,306.05677 358.38355,306.33356 C 357.62672,307.0904 357.9311,307.23846 358.38355,306.33356"
       id="path3336"
       sodipodi:nodetypes="ccsssc" />
    <path
       style="opacity:1;fill:#f4e3d7;fill-opacity:1;stroke:#666666;stroke-width:2.5;stroke-miterlimit:4;stroke-dasharray:none;stroke-opacity:1"
       d="M 362.95069,307.57915 C 359.96316,310.56668 362.4789,302.29482 362.95069,301.35123 C 364.7784,297.69582 373.16263,290.63552 376.23692,296.78409 C 379.39007,303.0904 376.62965,306.79368 377.06731,305.91837 C 378.7756,302.50178 384.36499,299.19547 387.86236,298.02967 C 392.2993,296.5507 394.92067,300.39031 394.92067,304.25759 C 394.92067,307.24605 391.72158,313.2694 390.76873,314.22226"
       id="path3338"
       sodipodi:nodetypes="csssssc" />
    <path
       style="opacity:1;fill:#f4e3d7;fill-opacity:1;stroke:#666666;stroke-width:2.5;stroke-miterlimit:4;stroke-dasharray:none;stroke-opacity:1"
       d="M 396.16625,314.22226 C 394.76299,315.62552 394.66598,308.66423 396.58145,306.74876 C 397.95378,305.37643 398.1208,303.90311 399.90301,303.01201 C 405.19021,300.3684 406.62165,299.59615 410.28287,305.08798 C 412.22438,308.00025 410.40295,315.22768 409.03729,317.95901 C 408.84172,318.35015 408.20058,319.6261 409.03729,318.7894 C 408.45339,319.9572 410.19003,316.39107 411.11326,315.46784 C 414.10722,312.47388 414.38556,311.34874 418.17157,308.82473 C 423.60811,305.20037 429.12519,308.9228 426.06026,315.05265 C 425.32013,316.53291 423.26209,319.31278 424.39948,320.45018 C 424.14429,320.96057 424.12269,319.34299 423.98429,318.7894 C 423.53706,317.00046 435.55751,312.56148 436.85532,312.56148 C 442.8584,312.56148 446.81999,311.49795 446.81999,318.7894 C 446.81999,321.43706 440.69305,325.33153 438.93129,327.09329"
       id="path3340" />
    <path
       style="opacity:1;fill:#f4e3d7;fill-opacity:1;stroke:#666666;stroke-width:2.5;stroke-miterlimit:4;stroke-dasharray:none;stroke-opacity:1"
       d="M 441.00727,325.84771 C 440.74797,326.107 442.37009,324.56305 444.74402,323.77173 C 451.19026,321.62299 459.1814,323.99807 462.18219,329.99965 C 464.4362,334.50768 457.84614,337.88835 454.29349,337.88835"
       id="path3342" />
    <path
       style="opacity:1;fill:#f4e3d7;fill-opacity:1;stroke:#666666;stroke-width:2.5;stroke-miterlimit:4;stroke-dasharray:none;stroke-opacity:1"
       d="M 224.69091,346.19224 C 221.71397,346.19224 223.40302,350.30188 225.1061,352.00496 C 226.70185,353.60071 233.43736,351.9776 234.65558,350.75938 C 235.5825,349.83246 236.93332,349.72722 237.56194,349.0986 C 238.10591,348.55463 235.97239,351.31703 237.14675,353.66574 C 237.91361,355.19947 238.69296,357.81769 240.8835,357.81769 C 243.03752,357.81769 246.56432,359.19517 248.357,357.40249 C 249.02224,356.73725 251.5341,355.47097 252.50894,354.49613 C 254.49018,352.5149 253.33933,358.49656 253.33933,359.47847 C 253.33933,362.2109 256.8943,363.63041 259.15206,363.63041 C 262.26254,363.63041 266.06239,362.5328 268.28634,360.30885 C 269.32612,359.26907 272.02309,357.46062 272.02309,359.89366 C 272.02309,362.02138 271.7689,364.20661 273.26867,365.70638 C 275.82644,368.26415 276.44063,367.78236 279.49659,367.78236 C 282.32576,367.78236 284.42041,365.34971 286.1397,363.63041 C 286.23756,363.53255 286.1397,363.35361 286.1397,363.21522 C 286.1397,361.48107 289.50134,362.75994 287.80048,364.4608 C 286.6191,365.64218 288.61961,369.84707 289.04606,370.27352 C 291.47554,372.703 297.30579,374.04114 299.49109,372.96185 C 305.9681,369.76294 306.6768,366.0355 306.22191,368.30699 C 305.4015,372.40374 305.22833,373.17404 311.07309,377.70359 C 318.06948,383.12562 324.93666,370.87259 326.41357,372.3495 C 327.53977,373.47569 327.28512,374.44605 328.90474,375.25586 C 329.0606,375.33379 331.35472,377.51884 332.64149,378.16222 C 335.65099,379.66697 339.90149,380.55254 343.02135,378.99261 C 345.51187,377.74735 346.98766,376.87272 348.00369,374.84066 C 349.20933,372.42938 349.39155,378.53763 350.23253,379.53896 C 357.17928,387.81018 358.43616,386.097 362.81954,386.0292 C 365.78896,385.98327 369.44348,384.95565 371.66978,382.72936 C 371.94657,382.45256 372.22337,382.17577 372.50017,381.89897 C 372.81172,381.58742 374.57614,376.2169 374.57614,378.57741 C 374.57614,380.052 377.20642,382.86847 378.31289,383.97494 C 380.37845,386.04051 385.14882,385.22053 387.86236,385.22053 C 391.75149,385.22053 391.08795,382.41014 392.8447,380.65339 C 394.0914,379.40669 392.5859,374.99706 395.75106,378.16222 C 397.1069,379.51806 401.89511,379.44974 403.63976,378.57741 C 403.93676,378.42891 405.72341,378.15838 406.54612,377.74703 C 408.79658,376.6218 410.33811,376.80616 411.52845,374.42547 C 412.84618,371.79002 412.35884,370.15749 412.35884,367.36716 C 412.35884,365.18093 413.61665,366.95197 415.2652,366.95197 C 416.733,366.95197 418.81591,368.79879 420.24754,367.36716 C 420.57449,367.04021 423.08732,366.18815 424.39948,364.87599 C 426.76545,362.51003 428.13623,360.77164 428.13623,357.40249 C 428.13623,356.15175 427.01656,352.83535 428.55143,352.83535 C 429.24794,352.83535 430.09142,352.77496 431.0426,353.25055 C 433.73862,354.59856 436.57147,352.83535 438.93129,352.83535 C 440.64253,352.83535 445.15921,349.12105 445.15921,347.43782 C 445.15921,346.89953 445.9896,344.93747 445.9896,343.28588 C 445.9896,339.63011 444.61937,340.37952 447.23518,340.37952 C 449.30532,340.37952 450.98436,341.82649 453.04791,340.79471 C 454.03829,340.29952 454.02116,339.21814 455.12388,338.71874 C 458.86063,337.02645 453.61449,333.4454 451.95988,333.4454"
       id="path3344"
       sodipodi:nodetypes="cssssssssssssssssssssssssssssssssssssssssssssssssssc" />
    <g
       sodipodi:type="inkscape:box3d"
       style="fill:#f9f9f9;fill-opacity:1;stroke:#000000;stroke-width:2.5;stroke-miterlimit:4;stroke-dasharray:none;stroke-opacity:1"
       id="g2516"
       inkscape:perspectiveID="#perspective10"
       inkscape:corner0="0.41245605 : 0.51524213 : 0 : 1"
       inkscape:corner7="0.27129497 : 0.48551265 : 0.25035466 : 1">
      <path
         sodipodi:type="inkscape:box3dside"
         id="path2520"
         style="fill:#4d4d9f;fill-rule:evenodd;stroke:none;stroke-width:1px;stroke-linecap:butt;stroke-linejoin:round;stroke-opacity:1"
         inkscape:box3dsidetype="5"
         d="M 389.81894,343.6066 L 360.85401,370.32208 L 281.67082,353.26137 L 318.54933,328.25094 L 389.81894,343.6066 z" />
      <path
         sodipodi:type="inkscape:box3dside"
         id="path2518"
         style="fill:#353564;fill-rule:evenodd;stroke:none;stroke-width:1px;stroke-linecap:butt;stroke-linejoin:round;stroke-opacity:1"
         inkscape:box3dsidetype="6"
         d="M 389.81894,343.6066 L 389.672,322.55904 L 318.40238,307.20338 L 318.54933,328.25094 L 389.81894,343.6066 z" />
      <path
         sodipodi:type="inkscape:box3dside"
         id="path2528"
         style="fill:#e9e9ff;fill-rule:evenodd;stroke:none;stroke-width:1px;stroke-linecap:butt;stroke-linejoin:round;stroke-opacity:1"
         inkscape:box3dsidetype="11"
         d="M 318.54933,328.25094 L 281.67082,353.26137 L 281.50756,329.87675 L 318.40238,307.20338 L 318.54933,328.25094 z" />
      <path
         sodipodi:type="inkscape:box3dside"
         id="path2526"
         style="fill:#ff6600;fill-rule:evenodd;stroke:none;stroke-width:1px;stroke-linecap:butt;stroke-linejoin:round;stroke-opacity:1"
         inkscape:box3dsidetype="13"
         d="M 389.672,322.55904 L 360.69075,346.93746 L 281.50756,329.87675 L 318.40238,307.20338 L 389.672,322.55904 z" />
      <path
         sodipodi:type="inkscape:box3dside"
         id="path2524"
         style="fill:#ff9955;fill-rule:evenodd;stroke:none;stroke-width:1px;stroke-linecap:butt;stroke-linejoin:round;stroke-opacity:1"
         inkscape:box3dsidetype="14"
         d="M 360.85401,370.32208 L 360.69075,346.93746 L 281.50756,329.87675 L 281.67082,353.26137 L 360.85401,370.32208 z" />
      <path
         sodipodi:type="inkscape:box3dside"
         id="path2522"
         style="fill:#d45500;fill-rule:evenodd;stroke:none;stroke-width:1px;stroke-linecap:butt;stroke-linejoin:round;stroke-opacity:1"
         inkscape:box3dsidetype="3"
         d="M 389.81894,343.6066 L 360.85401,370.32208 L 360.69075,346.93746 L 389.672,322.55904 L 389.81894,343.6066 z" />
    </g>
    <path
       style="fill:none;fill-opacity:1;stroke:#f4d7d7;stroke-width:2.5;stroke-miterlimit:4;stroke-dasharray:none;stroke-opacity:1"
       d="M 295.98412,352.52168 C 295.81423,348.17317 295.42229,336.53575 296.39764,329.79307 C 301.50173,325.3435 308.4581,320.0015 313.23578,317.12511 C 318.40817,314.01108 324.76349,310.69775 327.74425,308.50471 C 328.7659,307.75305 329.56159,307.38871 329.54594,306.86199"
       id="path3304"
       sodipodi:nodetypes="ccsss" />
    <path
       style="fill:none;fill-opacity:1;stroke:#f4d7d7;stroke-width:2.5;stroke-miterlimit:4;stroke-dasharray:none;stroke-opacity:1"
       d="M 315.64444,356.87801 C 315.51332,352.35782 316.00608,341.60691 316.83128,336.04959 C 323.58318,330.07385 330.46743,325.32343 337.24243,320.46826 C 340.18399,318.36025 341.6941,317.51356 344.38294,315.64431 C 348.74088,312.61474 350.37333,312.30735 350.36195,311.159"
       id="path3306"
       sodipodi:nodetypes="ccsss" />
    <path
       style="fill:none;fill-opacity:1;stroke:#f4d7d7;stroke-width:2.5;stroke-miterlimit:4;stroke-dasharray:none;stroke-opacity:1"
       d="M 334.92871,361.77778 C 335.14549,356.86361 336.3169,345.25063 336.70273,339.03917 C 340.71198,335.5666 349.58555,329.14033 352.0542,327.39065 C 356.23068,324.43052 361.07891,321.00079 366.32778,317.51865 C 367.26491,316.89696 369.47037,316.08043 369.2725,314.97485"
       id="path3308"
       sodipodi:nodetypes="ccssc" />
    <path
       style="fill:none;fill-opacity:1;stroke:#f4d7d7;stroke-width:2.5;stroke-miterlimit:4;stroke-dasharray:none;stroke-opacity:1"
       d="M 352.66011,365.07595 C 353.37593,359.43136 353.4392,350.37853 354.98631,343.2156 C 359.19182,339.5728 375.07295,326.86555 382.26829,321.07226 C 383.30304,320.23914 384.82225,319.4624 384.92686,318.59929"
       id="path3310"
       sodipodi:nodetypes="ccsc" />
    <path
       style="opacity:1;fill:#f4e3d7;fill-opacity:1;stroke:#666666;stroke-width:2.5;stroke-miterlimit:4;stroke-dasharray:none;stroke-opacity:1"
       d="M 295.94019,358.55117 C 295.91874,350.9419 293.30975,344.95411 299.18626,342.01586 C 303.89184,339.66307 306.91739,343.7045 307.38155,348.02574 C 307.84103,352.30346 306.67444,358.53456 306.67444,360.20727"
       id="path3367"
       sodipodi:nodetypes="cssc" />
    <path
       style="opacity:1;fill:#f4e3d7;fill-opacity:1;stroke:#666666;stroke-width:2.5;stroke-miterlimit:4;stroke-dasharray:none;stroke-opacity:1"
       d="M 277.36419,352.91087 C 274.97784,352.91087 278.32772,339.28409 282.79567,339.28409 C 286.0206,339.28409 286.94315,346.23624 286.74139,349.26962 C 286.5748,351.77431 285.27635,355.28166 286.05404,353.50901 C 287.56596,350.06275 287.23052,346.91527 289.7375,344.76364 C 290.98464,343.69328 292.19583,342.18191 295.02426,343.5262 C 299.08085,345.45422 296.05038,358.15205 295.47448,358.72795"
       id="path3365"
       sodipodi:nodetypes="csssssc" />
    <path
       style="opacity:1;fill:#f4e3d7;fill-opacity:1;stroke:#666666;stroke-width:2.5;stroke-miterlimit:4;stroke-dasharray:none;stroke-opacity:1"
       d="M 306.30486,360.33497 C 308.26563,355.47833 315.73542,342.38326 320.89563,347.54347 C 322.3505,348.99834 320.96598,360.12982 317.99022,362.78261"
       id="path3369"
       sodipodi:nodetypes="csc" />
    <path
       style="opacity:1;fill:#f4e3d7;fill-opacity:1;stroke:#666666;stroke-width:2.5;stroke-miterlimit:4;stroke-dasharray:none;stroke-opacity:1"
       d="M 318.29319,363.36263 C 318.64674,360.58553 324.32672,351.47239 325.55592,350.24319 C 331.65126,344.14785 337.60244,359.10837 334.32962,365.65402"
       id="path3371"
       sodipodi:nodetypes="css" />
    <path
       style="opacity:1;fill:#f4e3d7;fill-opacity:1;stroke:#666666;stroke-width:2.5;stroke-miterlimit:4;stroke-dasharray:none;stroke-opacity:1"
       d="M 334.28127,367.29308 C 334.59089,364.48844 335.45234,359.29234 338.52365,356.22103 C 339.64774,355.09695 347.2653,350.30197 347.2653,354.58197 C 347.2653,357.81129 346.47781,365.704 344.2924,369.39811"
       id="path3373"
       sodipodi:nodetypes="cssc" />
    <path
       style="opacity:1;fill:#f4e3d7;fill-opacity:1;stroke:#666666;stroke-width:2.5;stroke-miterlimit:4;stroke-dasharray:none;stroke-opacity:1"
       d="M 344.82018,369.01251 C 344.63806,368.83039 346.33326,360.97753 348.72758,358.58322 C 351.61259,355.6982 355.16372,352.51329 359.65463,354.75875 C 364.50485,357.18386 367.44731,366.97747 366.88884,370.82047"
       id="path3375"
       sodipodi:nodetypes="cssc" />
    <path
       style="opacity:1;fill:#f4e3d7;fill-opacity:1;stroke:#666666;stroke-width:2.5;stroke-miterlimit:4;stroke-dasharray:none;stroke-opacity:1"
       d="M 365.96132,364.7226 C 366.09299,364.59093 364.74859,359.94041 364.74859,357.86009 C 364.74859,353.91838 370.64307,346.60215 374.58293,348.57209 C 378.15242,350.35683 378.55504,358.40644 379.50011,358.40644"
       id="path3377"
       sodipodi:nodetypes="cssc" />
    <path
       style="opacity:1;fill:#f4e3d7;fill-opacity:1;stroke:#666666;stroke-width:2.5;stroke-miterlimit:4;stroke-dasharray:none;stroke-opacity:1"
       d="M 386.81125,346.64357 C 386.53807,346.18828 386.2649,345.73298 385.99172,345.27769 C 385.48836,344.43875 383.91109,338.07032 385.71854,334.62381 C 386.47575,333.17994 387.3389,329.10383 392.0016,329.97982 C 395.55113,330.64667 396.09925,333.5 396.09925,334.89699 C 396.09925,336.01417 396.6721,338.72618 397.19196,341.45322"
       id="path3381"
       sodipodi:nodetypes="csssss" />
    <path
       style="opacity:1;fill:#f4e3d7;fill-opacity:1;stroke:#666666;stroke-width:2.5;stroke-miterlimit:4;stroke-dasharray:none;stroke-opacity:1"
       d="M 379.22693,354.30879 C 379.22693,354.30879 378.95375,354.85514 378.95375,354.85514 C 376.34646,352.05829 376.42539,344.09956 380.59281,342.01585 C 382.99052,340.817 383.75883,338.89882 387.69539,342.83538 C 390.00401,345.144 388.99031,347.68159 390.42716,349.11843"
       id="path3379"
       sodipodi:nodetypes="ccssc" />
  </g>
</svg>
